<?xml version="1.0" encoding="UTF-8"?>
<svg width="128px" height="128px" viewBox="0 0 128 128" version="1.1" xmlns="http://www.w3.org/2000/svg" xmlns:xlink="http://www.w3.org/1999/xlink">
    <title>source-logo copy</title>
    <g id="source-logo-copy" stroke="none" stroke-width="1" fill="none" fill-rule="evenodd">
        <g id="Group-2">
            <path d="M67.2604628,1.35052793 L105.994371,17.3946381 C108.08201,18.2593666 109.740633,19.9179895 110.605362,22.0056288 L126.649472,60.7395372 C127.514201,62.8271765 127.514201,65.1728235 126.649472,67.2604628 L110.605362,105.994371 C109.740633,108.08201 108.08201,109.740633 105.994371,110.605362 L67.2604628,126.649472 C65.1728235,127.514201 62.8271765,127.514201 60.7395372,126.649472 L22.0056288,110.605362 C19.9179895,109.740633 18.2593666,108.08201 17.3946381,105.994371 L1.35052793,67.2604628 C0.485799419,65.1728235 0.485799419,62.8271765 1.35052793,60.7395372 L17.3946381,22.0056288 C18.2593666,19.9179895 19.9179895,18.2593666 22.0056288,17.3946381 L60.7395372,1.35052793 C62.8271765,0.485799419 65.1728235,0.485799419 67.2604628,1.35052793 Z" id="Polygon" fill="#84CC16"></path>
            <path d="M64.1486719,31.2940806 L66.1331399,31.3633798 C66.2322243,31.3668399 66.3311577,31.373758 66.4297593,31.3841214 L68.4045592,31.5916813 C68.5031609,31.6020447 68.6013707,31.6158472 68.6990092,31.6330635 L70.65452,31.9778728 C70.7521585,31.9950891 70.8491663,32.0157088 70.945366,32.0396941 L72.8720606,32.520073 C72.9682603,32.5440582 73.0635934,32.5713946 73.1578857,32.602032 L75.0463774,33.2156401 C75.1406697,33.2462776 75.2338636,33.2801974 75.3257891,33.3173377 L77.1668774,34.0611856 C77.2588028,34.0983259 77.3494036,34.138664 77.4385144,34.1821262 L79.2232296,35.05259 C79.3123404,35.0960522 79.3999067,35.142612 79.4857685,35.1921844 L81.2054158,36.1850233 C81.2912777,36.2345956 81.3753829,36.2871504 81.4575776,36.3425914 L83.103779,37.4529683 C83.1859738,37.5084093 83.266208,37.5667029 83.3443351,37.6277425 L84.9090705,38.8502478 C84.9871976,38.9112874 85.0631701,38.9750358 85.136849,39.0413766 L86.6124951,40.3700543 C86.686174,40.4363951 86.7575145,40.5052879 86.8263862,40.5766066 L88.2057539,42.0049836 C88.2746256,42.0763024 88.3409866,42.1500038 88.4047156,42.2259531 L89.6810846,43.7470704 C89.7448137,43.8230197 89.8058719,43.9011706 89.8641477,43.9813804 L91.0312998,45.5878274 C91.0895756,45.6680372 91.1450335,45.750257 91.1975723,45.8343365 L92.2498211,47.5182867 C92.3023598,47.6023662 92.3519473,47.6882543 92.398493,47.7757939 L93.3307122,49.5290432 C93.3772578,49.6165829 93.4207333,49.7057207 93.4610591,49.796294 L94.2687069,51.6103008 C94.3090327,51.7008741 94.3461843,51.7928275 94.3800939,51.8859931 L95.0592356,53.7519198 C95.0931451,53.8450854 95.1237919,53.9394064 95.1511199,54.0347104 L95.6984468,55.9434663 C95.7257748,56.0387704 95.7497674,56.1349994 95.7703808,56.2319777 L96.1832264,58.1742635 C96.2038397,58.2712417 96.2210613,58.36891 96.2348596,58.4670899 L96.5112125,60.4334431 C96.5250108,60.531623 96.5353774,60.6302547 96.5422934,60.7291579 L96.6808072,62.7099986 C96.6877232,62.8089018 96.6911844,62.9080164 96.6911844,63.0071612 L96.6911844,64.9928388 C96.6911844,65.0919836 96.6877232,65.1910982 96.6808072,65.2900014 L96.5422934,67.2708421 C96.5353774,67.3697453 96.5250108,67.468377 96.5112125,67.5665569 L96.2348596,69.5329101 C96.2210613,69.63109 96.2038397,69.7287583 96.1832264,69.8257365 L95.7703808,71.7680223 C95.7497674,71.8650006 95.7257748,71.9612296 95.6984468,72.0565337 L95.1511199,73.9652896 C95.1237919,74.0605936 95.0931451,74.1549146 95.0592356,74.2480802 L94.3800939,76.1140069 C94.3461843,76.2071725 94.3090327,76.2991259 94.2687069,76.3896992 L93.4610591,78.203706 C93.4207333,78.2942793 93.3772578,78.3834171 93.3307122,78.4709568 L92.398493,80.2242061 C92.3519473,80.3117457 92.3023598,80.3976338 92.2498211,80.4817133 L91.1975723,82.1656635 C91.1450335,82.249743 91.0895756,82.3319628 91.0312998,82.4121726 L89.8641477,84.0186196 C89.8058719,84.0988294 89.7448137,84.1769803 89.6810846,84.2529296 L88.4047156,85.7740469 C88.3409866,85.8499962 88.2746256,85.9236976 88.2057539,85.9950164 L86.8263862,87.4233934 C86.7575145,87.4947121 86.686174,87.5636049 86.6124951,87.6299457 L85.136849,88.9586234 C85.0631701,89.0249642 84.9871976,89.0887126 84.9090705,89.1497522 L83.3443351,90.3722575 C83.266208,90.4332971 83.1859738,90.4915907 83.103779,90.5470317 L81.4575776,91.6574086 C81.3753829,91.7128496 81.2912777,91.7654044 81.2054158,91.8149767 L79.4857685,92.8078156 C79.3999067,92.857388 79.3123404,92.9039478 79.2232296,92.94741 L77.4385144,93.8178738 C77.3494036,93.861336 77.2588028,93.9016741 77.1668774,93.9388144 L75.3257891,94.6826623 C75.2338636,94.7198026 75.1406697,94.7537224 75.0463774,94.7843599 L73.1578857,95.397968 C73.0635934,95.4286054 72.9682603,95.4559418 72.8720606,95.479927 L70.945366,95.9603059 C70.8491663,95.9842912 70.7521585,96.0049109 70.65452,96.0221272 L68.6990092,96.3669365 C68.6013707,96.3841528 68.5031609,96.3979553 68.4045592,96.4083187 L66.4297593,96.6158786 C66.3311577,96.626242 66.2322243,96.6331601 66.1331399,96.6366202 L64.1486719,96.7059194 C64.0495875,96.7093795 63.9504125,96.7093795 63.8513281,96.7059194 L61.8668601,96.6366202 C61.7677757,96.6331601 61.6688423,96.626242 61.5702407,96.6158786 L59.5954408,96.4083187 C59.4968391,96.3979553 59.3986293,96.3841528 59.3009908,96.3669365 L57.34548,96.0221272 C57.2478415,96.0049109 57.1508337,95.9842912 57.054634,95.9603059 L55.1279394,95.479927 C55.0317397,95.4559418 54.9364066,95.4286054 54.8421143,95.397968 L52.9536226,94.7843599 C52.8593303,94.7537224 52.7661364,94.7198026 52.6742109,94.6826623 L50.8331226,93.9388144 C50.7411972,93.9016741 50.6505964,93.861336 50.5614856,93.8178738 L48.7767704,92.94741 C48.6876596,92.9039478 48.6000933,92.857388 48.5142315,92.8078156 L46.7945842,91.8149767 C46.7087223,91.7654044 46.6246171,91.7128496 46.5424224,91.6574086 L44.896221,90.5470317 C44.8140262,90.4915907 44.733792,90.4332971 44.6556649,90.3722575 L43.0909295,89.1497522 C43.0128024,89.0887126 42.9368299,89.0249642 42.863151,88.9586234 L41.3875049,87.6299457 C41.313826,87.5636049 41.2424855,87.4947121 41.1736138,87.4233934 L39.7942461,85.9950164 C39.7253744,85.9236976 39.6590134,85.8499962 39.5952844,85.7740469 L38.3189154,84.2529296 C38.2551863,84.1769803 38.1941281,84.0988294 38.1358523,84.0186196 L36.9687002,82.4121726 C36.9104244,82.3319628 36.8549665,82.249743 36.8024277,82.1656635 L35.7501789,80.4817133 C35.6976402,80.3976338 35.6480527,80.3117457 35.601507,80.2242061 L34.6692878,78.4709568 C34.6227422,78.3834171 34.5792667,78.2942793 34.5389409,78.203706 L33.7312931,76.3896992 C33.6909673,76.2991259 33.6538157,76.2071725 33.6199061,76.1140069 L32.9407644,74.2480802 C32.9068549,74.1549146 32.8762081,74.0605936 32.8488801,73.9652896 L32.3015532,72.0565337 C32.2742252,71.9612296 32.2502326,71.8650006 32.2296192,71.7680223 L31.8167736,69.8257365 C31.7961603,69.7287583 31.7789387,69.63109 31.7651404,69.5329101 L31.4887875,67.5665569 C31.4749892,67.468377 31.4646226,67.3697453 31.4577066,67.2708421 L31.3191928,65.2900014 C31.3122768,65.1910982 31.3088156,65.0919836 31.3088156,64.9928388 L31.3088156,63.0071612 C31.3088156,62.9080164 31.3122768,62.8089018 31.3191928,62.7099986 L31.4577066,60.7291579 C31.4646226,60.6302547 31.4749892,60.531623 31.4887875,60.4334431 L31.7651404,58.4670899 C31.7789387,58.36891 31.7961603,58.2712417 31.8167736,58.1742635 L32.2296192,56.2319777 C32.2502326,56.1349994 32.2742252,56.0387704 32.3015532,55.9434663 L32.8488801,54.0347104 C32.8762081,53.9394064 32.9068549,53.8450854 32.9407644,53.7519198 L33.6199061,51.8859931 C33.6538157,51.7928275 33.6909673,51.7008741 33.7312931,51.6103008 L34.5389409,49.796294 C34.5792667,49.7057207 34.6227422,49.6165829 34.6692878,49.5290432 L35.601507,47.7757939 C35.6480527,47.6882543 35.6976402,47.6023662 35.7501789,47.5182867 L36.8024277,45.8343365 C36.8549665,45.750257 36.9104244,45.6680372 36.9687002,45.5878274 L38.1358523,43.9813804 C38.1941281,43.9011706 38.2551863,43.8230197 38.3189154,43.7470704 L39.5952844,42.2259531 C39.6590134,42.1500038 39.7253744,42.0763024 39.7942461,42.0049836 L41.1736138,40.5766066 C41.2424855,40.5052879 41.313826,40.4363951 41.3875049,40.3700543 L42.863151,39.0413766 C42.9368299,38.9750358 43.0128024,38.9112874 43.0909295,38.8502478 L44.6556649,37.6277425 C44.733792,37.5667029 44.8140262,37.5084093 44.896221,37.4529683 L46.5424224,36.3425914 C46.6246171,36.2871504 46.7087223,36.2345956 46.7945842,36.1850233 L48.5142315,35.1921844 C48.6000933,35.142612 48.6876596,35.0960522 48.7767704,35.05259 L50.5614856,34.1821262 C50.6505964,34.138664 50.7411972,34.0983259 50.8331226,34.0611856 L52.6742109,33.3173377 C52.7661364,33.2801974 52.8593303,33.2462776 52.9536226,33.2156401 L54.8421143,32.602032 C54.9364066,32.5713946 55.0317397,32.5440582 55.1279394,32.520073 L57.054634,32.0396941 C57.1508337,32.0157088 57.2478415,31.9950891 57.34548,31.9778728 L59.3009908,31.6330635 C59.3986293,31.6158472 59.4968391,31.6020447 59.5954408,31.5916813 L61.5702407,31.3841214 C61.6688423,31.373758 61.7677757,31.3668399 61.8668601,31.3633798 L63.8513281,31.2940806 C63.9504125,31.2906205 64.0495875,31.2906205 64.1486719,31.2940806 Z" id="Polygon" fill="#BBF7D0"></path>
        </g>
    </g>
</svg>