<?xml version="1.0" encoding="UTF-8"?>
<svg width="128px" height="128px" viewBox="0 0 128 128" version="1.1" xmlns="http://www.w3.org/2000/svg" xmlns:xlink="http://www.w3.org/1999/xlink">
    <title>icon</title>
    <g id="icon" stroke="none" stroke-width="1" fill="none" fill-rule="evenodd">
        <rect id="background" fill="#000000" x="0" y="0" width="128" height="128" rx="24"></rect>
        <path d="M66.2961006,19.951076 L93.5237046,31.2291188 C94.9938731,31.8380826 96.1619174,33.0061269 96.7708812,34.4762954 L108.048924,61.7038994 C108.657888,63.1740679 108.657888,64.8259321 108.048924,66.2961006 L96.7708812,93.5237046 C96.1619174,94.9938731 94.9938731,96.1619174 93.5237046,96.7708812 L66.2961006,108.048924 C64.8259321,108.657888 63.1740679,108.657888 61.7038994,108.048924 L34.4762954,96.7708812 C33.0061269,96.1619174 31.8380826,94.9938731 31.2291188,93.5237046 L19.951076,66.2961006 C19.3421123,64.8259321 19.3421123,63.1740679 19.951076,61.7038994 L31.2291188,34.4762954 C31.8380826,33.0061269 33.0061269,31.8380826 34.4762954,31.2291188 L61.7038994,19.951076 C63.1740679,19.3421123 64.8259321,19.3421123 66.2961006,19.951076 Z" id="Polygon" fill="#84CC16"></path>
        <path d="M64.1046985,41.0036562 L65.4997004,41.0523707 C65.5694781,41.0548074 65.6391495,41.0596793 65.7085873,41.0669775 L67.0967929,41.2128838 C67.1662307,41.220182 67.2353925,41.229902 67.3041521,41.2420262 L68.6787982,41.4844134 C68.7475577,41.4965376 68.815873,41.5110584 68.8836193,41.5279495 L70.2380088,41.8656367 C70.3057551,41.8825277 70.372891,41.9017787 70.4392941,41.9233543 L71.7668284,42.3546964 C71.8332314,42.376272 71.898861,42.4001592 71.9635972,42.4263144 L73.2578089,42.9492098 C73.3225451,42.975365 73.3863485,43.0037721 73.4491025,43.0343792 L74.7036862,43.6462806 C74.7664402,43.6768878 74.8281066,43.7096764 74.8885728,43.7445865 L76.0974163,44.4425126 C76.1578824,44.4774228 76.2171113,44.5144331 76.274995,44.5534761 L77.4322089,45.3340268 C77.4900925,45.3730698 77.5465955,45.4141216 77.6016146,45.4571072 L78.7015612,46.3164797 C78.7565803,46.3594653 78.810082,46.4043586 78.8619686,46.4510775 L79.899289,47.3850849 C79.9511755,47.4318038 80.0014153,47.4803198 80.0499165,47.5305443 L81.019557,48.5346364 C81.0680582,48.5848608 81.1147913,48.6367632 81.1596709,48.6902486 L82.0569074,49.7595335 C82.101787,49.8130189 82.1447858,49.8680548 82.1858251,49.9245406 L83.0062864,51.0538087 C83.0473257,51.1102945 83.0863806,51.1681958 83.1233797,51.2274067 L83.8630687,52.4111565 C83.9000678,52.4703675 83.9349886,52.530852 83.9677672,52.5924996 L84.6230801,53.824964 C84.6558588,53.8866116 84.6864753,53.9493848 84.7148737,54.0131688 L85.282618,55.2883432 C85.3110164,55.3521272 85.3371795,55.4168831 85.3610595,55.4824927 L85.8384691,56.7941648 C85.862349,56.8597743 85.8839312,56.9261976 85.9031763,56.9933131 L86.2879253,58.3350924 C86.3071704,58.4022079 86.3240666,58.4699749 86.338583,58.5382694 L86.628797,59.9036189 C86.6433135,59.9719134 86.6554413,60.0406939 86.6651584,60.1098347 L86.8594235,61.4921026 C86.8691406,61.5612433 86.876441,61.6307023 86.8813114,61.7003525 L86.9786812,63.0928045 C86.9835516,63.1624546 86.985989,63.2322536 86.985989,63.3020739 L86.985989,64.6979261 C86.985989,64.7677464 86.9835516,64.8375454 86.9786812,64.9071955 L86.8813114,66.2996475 C86.876441,66.3692977 86.8691406,66.4387567 86.8594235,66.5078974 L86.6651584,67.8901653 C86.6554413,67.9593061 86.6433135,68.0280866 86.628797,68.0963811 L86.338583,69.4617306 C86.3240666,69.5300251 86.3071704,69.5977921 86.2879253,69.6649076 L85.9031763,71.0066869 C85.8839312,71.0738024 85.862349,71.1402257 85.8384691,71.2058352 L85.3610595,72.5175073 C85.3371795,72.5831169 85.3110164,72.6478728 85.282618,72.7116568 L84.7148737,73.9868312 C84.6864753,74.0506152 84.6558588,74.1133884 84.6230801,74.175036 L83.9677672,75.4075004 C83.9349886,75.469148 83.9000678,75.5296325 83.8630687,75.5888435 L83.1233797,76.7725933 C83.0863806,76.8318042 83.0473257,76.8897055 83.0062864,76.9461913 L82.1858251,78.0754594 C82.1447858,78.1319452 82.101787,78.1869811 82.0569074,78.2404665 L81.1596709,79.3097514 C81.1147913,79.3632368 81.0680582,79.4151392 81.019557,79.4653636 L80.0499165,80.4694557 C80.0014153,80.5196802 79.9511755,80.5681962 79.899289,80.6149151 L78.8619686,81.5489225 C78.810082,81.5956414 78.7565803,81.6405347 78.7015612,81.6835203 L77.6016146,82.5428928 C77.5465955,82.5858784 77.4900925,82.6269302 77.4322089,82.6659732 L76.274995,83.4465239 C76.2171113,83.4855669 76.1578824,83.5225772 76.0974163,83.5574874 L74.8885728,84.2554135 C74.8281066,84.2903236 74.7664402,84.3231122 74.7036862,84.3537194 L73.4491025,84.9656208 C73.3863485,84.9962279 73.3225451,85.024635 73.2578089,85.0507902 L71.9635972,85.5736856 C71.898861,85.5998408 71.8332314,85.623728 71.7668284,85.6453036 L70.4392941,86.0766457 C70.372891,86.0982213 70.3057551,86.1174723 70.2380088,86.1343633 L68.8836193,86.4720505 C68.815873,86.4889416 68.7475577,86.5034624 68.6787982,86.5155866 L67.3041521,86.7579738 C67.2353925,86.770098 67.1662307,86.779818 67.0967929,86.7871162 L65.7085873,86.9330225 C65.6391495,86.9403207 65.5694781,86.9451926 65.4997004,86.9476293 L64.1046985,86.9963438 C64.0349208,86.9987805 63.9650792,86.9987805 63.8953015,86.9963438 L62.5002996,86.9476293 C62.4305219,86.9451926 62.3608505,86.9403207 62.2914127,86.9330225 L60.9032071,86.7871162 C60.8337693,86.779818 60.7646075,86.770098 60.6958479,86.7579738 L59.3212018,86.5155866 C59.2524423,86.5034624 59.184127,86.4889416 59.1163807,86.4720505 L57.7619912,86.1343633 C57.6942449,86.1174723 57.627109,86.0982213 57.5607059,86.0766457 L56.2331716,85.6453036 C56.1667686,85.623728 56.101139,85.5998408 56.0364028,85.5736856 L54.7421911,85.0507902 C54.6774549,85.024635 54.6136515,84.9962279 54.5508975,84.9656208 L53.2963138,84.3537194 C53.2335598,84.3231122 53.1718934,84.2903236 53.1114272,84.2554135 L51.9025837,83.5574874 C51.8421176,83.5225772 51.7828887,83.4855669 51.725005,83.4465239 L50.5677911,82.6659732 C50.5099075,82.6269302 50.4534045,82.5858784 50.3983854,82.5428928 L49.2984388,81.6835203 C49.2434197,81.6405347 49.189918,81.5956414 49.1380314,81.5489225 L48.100711,80.6149151 C48.0488245,80.5681962 47.9985847,80.5196802 47.9500835,80.4694557 L46.980443,79.4653636 C46.9319418,79.4151392 46.8852087,79.3632368 46.8403291,79.3097514 L45.9430926,78.2404665 C45.898213,78.1869811 45.8552142,78.1319452 45.8141749,78.0754594 L44.9937136,76.9461913 C44.9526743,76.8897055 44.9136194,76.8318042 44.8766203,76.7725933 L44.1369313,75.5888435 C44.0999322,75.5296325 44.0650114,75.469148 44.0322328,75.4075004 L43.3769199,74.175036 C43.3441412,74.1133884 43.3135247,74.0506152 43.2851263,73.9868312 L42.717382,72.7116568 C42.6889836,72.6478728 42.6628205,72.5831169 42.6389405,72.5175073 L42.1615309,71.2058352 C42.137651,71.1402257 42.1160688,71.0738024 42.0968237,71.0066869 L41.7120747,69.6649076 C41.6928296,69.5977921 41.6759334,69.5300251 41.661417,69.4617306 L41.371203,68.0963811 C41.3566865,68.0280866 41.3445587,67.9593061 41.3348416,67.8901653 L41.1405765,66.5078974 C41.1308594,66.4387567 41.123559,66.3692977 41.1186886,66.2996475 L41.0213188,64.9071955 C41.0164484,64.8375454 41.014011,64.7677464 41.014011,64.6979261 L41.014011,63.3020739 C41.014011,63.2322536 41.0164484,63.1624546 41.0213188,63.0928045 L41.1186886,61.7003525 C41.123559,61.6307023 41.1308594,61.5612433 41.1405765,61.4921026 L41.3348416,60.1098347 C41.3445587,60.0406939 41.3566865,59.9719134 41.371203,59.9036189 L41.661417,58.5382694 C41.6759334,58.4699749 41.6928296,58.4022079 41.7120747,58.3350924 L42.0968237,56.9933131 C42.1160688,56.9261976 42.137651,56.8597743 42.1615309,56.7941648 L42.6389405,55.4824927 C42.6628205,55.4168831 42.6889836,55.3521272 42.717382,55.2883432 L43.2851263,54.0131688 C43.3135247,53.9493848 43.3441412,53.8866116 43.3769199,53.824964 L44.0322328,52.5924996 C44.0650114,52.530852 44.0999322,52.4703675 44.1369313,52.4111565 L44.8766203,51.2274067 C44.9136194,51.1681958 44.9526743,51.1102945 44.9937136,51.0538087 L45.8141749,49.9245406 C45.8552142,49.8680548 45.898213,49.8130189 45.9430926,49.7595335 L46.8403291,48.6902486 C46.8852087,48.6367632 46.9319418,48.5848608 46.980443,48.5346364 L47.9500835,47.5305443 C47.9985847,47.4803198 48.0488245,47.4318038 48.100711,47.3850849 L49.1380314,46.4510775 C49.189918,46.4043586 49.2434197,46.3594653 49.2984388,46.3164797 L50.3983854,45.4571072 C50.4534045,45.4141216 50.5099075,45.3730698 50.5677911,45.3340268 L51.725005,44.5534761 C51.7828887,44.5144331 51.8421176,44.4774228 51.9025837,44.4425126 L53.1114272,43.7445865 C53.1718934,43.7096764 53.2335598,43.6768878 53.2963138,43.6462806 L54.5508975,43.0343792 C54.6136515,43.0037721 54.6774549,42.975365 54.7421911,42.9492098 L56.0364028,42.4263144 C56.101139,42.4001592 56.1667686,42.376272 56.2331716,42.3546964 L57.5607059,41.9233543 C57.627109,41.9017787 57.6942449,41.8825277 57.7619912,41.8656367 L59.1163807,41.5279495 C59.184127,41.5110584 59.2524423,41.4965376 59.3212018,41.4844134 L60.6958479,41.2420262 C60.7646075,41.229902 60.8337693,41.220182 60.9032071,41.2128838 L62.2914127,41.0669775 C62.3608505,41.0596793 62.4305219,41.0548074 62.5002996,41.0523707 L63.8953015,41.0036562 C63.9650792,41.0012195 64.0349208,41.0012195 64.1046985,41.0036562 Z" id="Polygon" fill="#BBF7D0"></path>
    </g>
</svg>