<?xml version="1.0" encoding="UTF-8"?>
<svg viewBox="0 0 16 16" version="1.1" xmlns="http://www.w3.org/2000/svg" xmlns:xlink="http://www.w3.org/1999/xlink">
    <title>javascript</title>
    <g id="Page-1" stroke="none" stroke-width="1" fill="none" fill-rule="evenodd">
        <g id="javascript" fill-rule="nonzero">
            <rect id="Rectangle" fill="#F7DF1E" x="0" y="0" width="16" height="16"></rect>
            <path d="M10.7479365,12.5000635 C11.0702222,13.0262857 11.4895238,13.4130794 12.2311111,13.4130794 C12.8540952,13.4130794 13.2520635,13.1017143 13.2520635,12.6714921 C13.2520635,12.1559365 12.8431746,11.9733333 12.1574603,11.6733968 L11.7815873,11.512127 C10.6966349,11.0499048 9.97587302,10.4708571 9.97587302,9.24673016 C9.97587302,8.11911111 10.8350476,7.26069841 12.1777778,7.26069841 C13.1337143,7.26069841 13.8209524,7.59339683 14.3161905,8.46450794 L13.1453968,9.21625397 C12.887619,8.75403175 12.6095238,8.57193651 12.1777778,8.57193651 C11.7373968,8.57193651 11.4582857,8.85130159 11.4582857,9.21625397 C11.4582857,9.66730159 11.7376508,9.84990476 12.3827302,10.1292698 L12.7586032,10.2902857 C14.0360635,10.8380952 14.7573333,11.3965714 14.7573333,12.6521905 C14.7573333,14.0058413 13.6939683,14.7474286 12.2659048,14.7474286 C10.8695873,14.7474286 9.96749206,14.0820317 9.52609524,13.2099048 L10.7479365,12.5000635 Z M5.43669841,12.6303492 C5.67288889,13.0493968 5.88774603,13.4036825 6.40431746,13.4036825 C6.89828571,13.4036825 7.20990476,13.2104127 7.20990476,12.4589206 L7.20990476,7.34653968 L8.71339683,7.34653968 L8.71339683,12.4792381 C8.71339683,14.0360635 7.80063492,14.7446349 6.46831746,14.7446349 C5.26450794,14.7446349 4.56736508,14.1216508 4.2128254,13.3713016 L5.43669841,12.6303492 Z" id="Shape" fill="#000000"></path>
        </g>
    </g>
</svg>