<?xml version="1.0" standalone="no"?>
<svg version="1.0" xmlns="http://www.w3.org/2000/svg"
 viewBox="0 0 80.000000 80.000000"
 preserveAspectRatio="xMidYMid meet">
<g transform="translate(0.000000,80.000000) scale(0.100000,-0.100000)"
fill="#000000" stroke="none">
<path d="M307 790 c-244 -62 -374 -329 -268 -555 54 -116 154 -194 282 -221
183 -38 367 55 448 226 23 48 26 68 26 160 0 99 -2 110 -33 172 -42 85 -129
168 -209 198 -65 25 -186 35 -246 20z m31 -220 c37 -17 42 -22 33 -38 -16 -30
-35 -42 -51 -32 -8 6 -32 10 -52 10 -54 0 -70 -28 -66 -115 3 -61 6 -70 30
-88 24 -18 32 -19 68 -8 38 11 42 11 60 -11 26 -31 25 -33 -14 -52 -43 -20
-128 -21 -166 -1 -66 34 -101 127 -80 215 15 63 42 97 94 121 52 24 90 23 144
-1z m182 -130 c19 -77 36 -138 38 -136 2 3 15 49 28 103 49 194 38 173 95 173
41 0 50 -3 46 -15 -4 -8 -31 -90 -61 -183 -62 -194 -74 -220 -116 -256 -32
-27 -104 -51 -120 -41 -6 3 -10 19 -10 35 0 21 6 30 23 35 12 4 32 13 43 21
l22 13 -59 186 c-32 102 -59 190 -59 195 0 6 22 10 48 10 l48 0 34 -140z"/>
</g>
</svg>
