<?xml version="1.0" encoding="UTF-8"?>
<svg viewBox="0 0 540 468" version="1.1" xmlns="http://www.w3.org/2000/svg" xmlns:xlink="http://www.w3.org/1999/xlink">
    <defs>
        <rect id="path-1" x="0" y="0" width="150" height="150" rx="6"></rect>
        <filter x="-60.7%" y="-39.3%" width="221.3%" height="221.3%" filterUnits="objectBoundingBox" id="filter-3">
            <feOffset dx="0" dy="1.4" in="SourceAlpha" result="shadowOffsetOuter1"></feOffset>
            <feGaussianBlur stdDeviation="1.15" in="shadowOffsetOuter1" result="shadowBlurOuter1"></feGaussianBlur>
            <feColorMatrix values="0 0 0 0 0   0 0 0 0 0   0 0 0 0 0  0 0 0 0.02 0" type="matrix" in="shadowBlurOuter1" result="shadowMatrixOuter1"></feColorMatrix>
            <feOffset dx="0" dy="4" in="SourceAlpha" result="shadowOffsetOuter2"></feOffset>
            <feGaussianBlur stdDeviation="3.15" in="shadowOffsetOuter2" result="shadowBlurOuter2"></feGaussianBlur>
            <feColorMatrix values="0 0 0 0 0   0 0 0 0 0   0 0 0 0 0  0 0 0 0.03 0" type="matrix" in="shadowBlurOuter2" result="shadowMatrixOuter2"></feColorMatrix>
            <feOffset dx="0" dy="9.6" in="SourceAlpha" result="shadowOffsetOuter3"></feOffset>
            <feGaussianBlur stdDeviation="7.5" in="shadowOffsetOuter3" result="shadowBlurOuter3"></feGaussianBlur>
            <feColorMatrix values="0 0 0 0 0   0 0 0 0 0   0 0 0 0 0  0 0 0 0.04 0" type="matrix" in="shadowBlurOuter3" result="shadowMatrixOuter3"></feColorMatrix>
            <feOffset dx="0" dy="32" in="SourceAlpha" result="shadowOffsetOuter4"></feOffset>
            <feGaussianBlur stdDeviation="25" in="shadowOffsetOuter4" result="shadowBlurOuter4"></feGaussianBlur>
            <feColorMatrix values="0 0 0 0 0   0 0 0 0 0   0 0 0 0 0  0 0 0 0.07 0" type="matrix" in="shadowBlurOuter4" result="shadowMatrixOuter4"></feColorMatrix>
            <feMerge>
                <feMergeNode in="shadowMatrixOuter1"></feMergeNode>
                <feMergeNode in="shadowMatrixOuter2"></feMergeNode>
                <feMergeNode in="shadowMatrixOuter3"></feMergeNode>
                <feMergeNode in="shadowMatrixOuter4"></feMergeNode>
            </feMerge>
        </filter>
        <linearGradient x1="50%" y1="0%" x2="50%" y2="100%" id="linearGradient-4">
            <stop stop-color="#414141" offset="0%"></stop>
            <stop stop-color="#363636" offset="100%"></stop>
        </linearGradient>
        <rect id="path-5" x="0" y="0" width="150" height="24"></rect>
        <filter x="-0.3%" y="-2.1%" width="100.7%" height="104.2%" filterUnits="objectBoundingBox" id="filter-6">
            <feOffset dx="0" dy="1" in="SourceAlpha" result="shadowOffsetInner1"></feOffset>
            <feComposite in="shadowOffsetInner1" in2="SourceAlpha" operator="arithmetic" k2="-1" k3="1" result="shadowInnerInner1"></feComposite>
            <feColorMatrix values="0 0 0 0 1   0 0 0 0 1   0 0 0 0 1  0 0 0 0.163434222 0" type="matrix" in="shadowInnerInner1"></feColorMatrix>
        </filter>
        <rect id="path-7" x="0" y="0" width="150" height="150" rx="6"></rect>
        <filter x="-60.7%" y="-39.3%" width="221.3%" height="221.3%" filterUnits="objectBoundingBox" id="filter-9">
            <feOffset dx="0" dy="1.4" in="SourceAlpha" result="shadowOffsetOuter1"></feOffset>
            <feGaussianBlur stdDeviation="1.15" in="shadowOffsetOuter1" result="shadowBlurOuter1"></feGaussianBlur>
            <feColorMatrix values="0 0 0 0 0   0 0 0 0 0   0 0 0 0 0  0 0 0 0.02 0" type="matrix" in="shadowBlurOuter1" result="shadowMatrixOuter1"></feColorMatrix>
            <feOffset dx="0" dy="4" in="SourceAlpha" result="shadowOffsetOuter2"></feOffset>
            <feGaussianBlur stdDeviation="3.15" in="shadowOffsetOuter2" result="shadowBlurOuter2"></feGaussianBlur>
            <feColorMatrix values="0 0 0 0 0   0 0 0 0 0   0 0 0 0 0  0 0 0 0.03 0" type="matrix" in="shadowBlurOuter2" result="shadowMatrixOuter2"></feColorMatrix>
            <feOffset dx="0" dy="9.6" in="SourceAlpha" result="shadowOffsetOuter3"></feOffset>
            <feGaussianBlur stdDeviation="7.5" in="shadowOffsetOuter3" result="shadowBlurOuter3"></feGaussianBlur>
            <feColorMatrix values="0 0 0 0 0   0 0 0 0 0   0 0 0 0 0  0 0 0 0.04 0" type="matrix" in="shadowBlurOuter3" result="shadowMatrixOuter3"></feColorMatrix>
            <feOffset dx="0" dy="32" in="SourceAlpha" result="shadowOffsetOuter4"></feOffset>
            <feGaussianBlur stdDeviation="25" in="shadowOffsetOuter4" result="shadowBlurOuter4"></feGaussianBlur>
            <feColorMatrix values="0 0 0 0 0   0 0 0 0 0   0 0 0 0 0  0 0 0 0.07 0" type="matrix" in="shadowBlurOuter4" result="shadowMatrixOuter4"></feColorMatrix>
            <feMerge>
                <feMergeNode in="shadowMatrixOuter1"></feMergeNode>
                <feMergeNode in="shadowMatrixOuter2"></feMergeNode>
                <feMergeNode in="shadowMatrixOuter3"></feMergeNode>
                <feMergeNode in="shadowMatrixOuter4"></feMergeNode>
            </feMerge>
        </filter>
        <rect id="path-10" x="0" y="0" width="150" height="24"></rect>
        <filter x="-0.3%" y="-2.1%" width="100.7%" height="104.2%" filterUnits="objectBoundingBox" id="filter-11">
            <feOffset dx="0" dy="1" in="SourceAlpha" result="shadowOffsetInner1"></feOffset>
            <feComposite in="shadowOffsetInner1" in2="SourceAlpha" operator="arithmetic" k2="-1" k3="1" result="shadowInnerInner1"></feComposite>
            <feColorMatrix values="0 0 0 0 1   0 0 0 0 1   0 0 0 0 1  0 0 0 0.163434222 0" type="matrix" in="shadowInnerInner1"></feColorMatrix>
        </filter>
        <path d="M3.04761905,2.88728477e-14 L55.6922861,2.88728477e-14 L55.6922861,2.88728477e-14 L60.952381,2.88728477e-14 C62.6355345,2.85636574e-14 64,1.36446552 64,3.04761905 L64,60.952381 C64,62.6355345 62.6355345,64 60.952381,64 L3.04761905,64 C1.36446552,64 1.46425507e-14,62.6355345 1.44364238e-14,60.952381 L1.44364238e-14,3.04761905 C1.4230297e-14,1.36446552 1.36446552,2.9182038e-14 3.04761905,2.88728477e-14 Z" id="path-12"></path>
    </defs>
    <g id="development-diagram" stroke="none" stroke-width="1" fill="none" fill-rule="evenodd">
        <g id="Browser" transform="translate(63.000000, 174.000000)">
            <g id="browser">
                <mask id="mask-2" fill="white">
                    <use xlink:href="#path-1"></use>
                </mask>
                <g id="Rectangle">
                    <use fill="black" fill-opacity="1" filter="url(#filter-3)" xlink:href="#path-1"></use>
                    <use fill="#FFFFFF" fill-rule="evenodd" xlink:href="#path-1"></use>
                </g>
                <g id="Rectangle" mask="url(#mask-2)">
                    <use fill="url(#linearGradient-4)" fill-rule="evenodd" xlink:href="#path-5"></use>
                    <use fill="black" fill-opacity="1" filter="url(#filter-6)" xlink:href="#path-5"></use>
                </g>
            </g>
            <g id="code" transform="translate(51.000000, 74.000000)" fill="#C3CCD4">
                <path d="M14.5959184,26.0571438 C14.0977222,26.0576329 13.6164247,25.8765369 13.2421224,25.5477551 L0.703346939,14.5763265 C0.25719278,14.1857075 0.00130218834,13.6215611 0.00130218834,13.0285714 C0.00130218834,12.4355817 0.25719278,11.8714354 0.703346939,11.4808163 L13.2421224,0.509387755 C14.0971945,-0.238834078 15.396921,-0.152214874 16.1451428,0.702857163 C16.8933647,1.5579292 16.8067455,2.85765569 15.9516735,3.60587755 L5.18106122,13.0285714 L15.9506939,22.4512653 C16.596141,23.0155461 16.823957,23.9209602 16.5224266,24.7235151 C16.2208963,25.5260699 15.4532483,26.0574751 14.5959184,26.0571438 L14.5959184,26.0571438 Z" id="Path" fill-rule="nonzero"></path>
                <path d="M33.4040816,26.0571463 C32.5465724,26.0578838 31.7785499,25.5266251 31.4767653,24.723974 C31.1749808,23.921323 31.402744,23.015664 32.0483265,22.4512653 L42.8189388,13.0285714 L32.0493061,3.60587755 C31.1942341,2.85765569 31.1076149,1.55792921 31.8558368,0.702857178 C32.6040586,-0.152214853 33.9037851,-0.238834063 34.7588571,0.509387755 L47.2976327,11.4808163 C47.7437868,11.8714354 47.9996774,12.4355817 47.9996774,13.0285714 C47.9996774,13.6215611 47.7437868,14.1857075 47.2976327,14.5763265 L34.7588571,25.5477551 C34.3843958,25.8769171 33.9026477,26.0580517 33.4040816,26.0571463 L33.4040816,26.0571463 Z" id="Path" fill-rule="nonzero"></path>
            </g>
        </g>
        <path d="M125,115 L415,115 L415,355 L125,355 L125,115 Z" id="progress" stroke="#C3CCD4" stroke-width="3" stroke-linecap="round" stroke-linejoin="round" stroke-dasharray="10"></path>
        <g id="Browser" transform="translate(51.000000, 160.000000)">
            <g id="browser">
                <mask id="mask-8" fill="white">
                    <use xlink:href="#path-7"></use>
                </mask>
                <g id="Rectangle">
                    <use fill="black" fill-opacity="1" filter="url(#filter-9)" xlink:href="#path-7"></use>
                    <use fill="#FFFFFF" fill-rule="evenodd" xlink:href="#path-7"></use>
                </g>
                <g id="Rectangle" mask="url(#mask-8)">
                    <use fill="url(#linearGradient-4)" fill-rule="evenodd" xlink:href="#path-10"></use>
                    <use fill="black" fill-opacity="1" filter="url(#filter-11)" xlink:href="#path-10"></use>
                </g>
            </g>
            <g id="code" transform="translate(51.000000, 74.000000)" fill="#C3CCD4">
                <path d="M14.5959184,26.0571438 C14.0977222,26.0576329 13.6164247,25.8765369 13.2421224,25.5477551 L0.703346939,14.5763265 C0.25719278,14.1857075 0.00130218834,13.6215611 0.00130218834,13.0285714 C0.00130218834,12.4355817 0.25719278,11.8714354 0.703346939,11.4808163 L13.2421224,0.509387755 C14.0971945,-0.238834078 15.396921,-0.152214874 16.1451428,0.702857163 C16.8933647,1.5579292 16.8067455,2.85765569 15.9516735,3.60587755 L5.18106122,13.0285714 L15.9506939,22.4512653 C16.596141,23.0155461 16.823957,23.9209602 16.5224266,24.7235151 C16.2208963,25.5260699 15.4532483,26.0574751 14.5959184,26.0571438 L14.5959184,26.0571438 Z" id="Path" fill-rule="nonzero"></path>
                <path d="M33.4040816,26.0571463 C32.5465724,26.0578838 31.7785499,25.5266251 31.4767653,24.723974 C31.1749808,23.921323 31.402744,23.015664 32.0483265,22.4512653 L42.8189388,13.0285714 L32.0493061,3.60587755 C31.1942341,2.85765569 31.1076149,1.55792921 31.8558368,0.702857178 C32.6040586,-0.152214853 33.9037851,-0.238834063 34.7588571,0.509387755 L47.2976327,11.4808163 C47.7437868,11.8714354 47.9996774,12.4355817 47.9996774,13.0285714 C47.9996774,13.6215611 47.7437868,14.1857075 47.2976327,14.5763265 L34.7588571,25.5477551 C34.3843958,25.8769171 33.9026477,26.0580517 33.4040816,26.0571463 L33.4040816,26.0571463 Z" id="Path" fill-rule="nonzero"></path>
            </g>
        </g>
        <g id="logo" transform="translate(415.000000, 244.000000) rotate(-45.000000) translate(-415.000000, -244.000000) translate(383.000000, 212.000000)">
            <g id="box" stroke-linejoin="square">
                <path stroke="#FFFFFF" stroke-width="4.06349206" d="M60.952381,2.03174603 L3.04761905,2.03174603 C2.76709346,2.03174603 2.51312521,2.14545149 2.32928835,2.32928835 C2.14545149,2.51312521 2.03174603,2.76709346 2.03174603,3.04761905 L2.03174603,60.952381 C2.03174603,61.2329065 2.14545149,61.4868748 2.32928835,61.6707117 C2.51312521,61.8545485 2.76709346,61.968254 3.04761905,61.968254 L60.952381,61.968254 C61.2329065,61.968254 61.4868748,61.8545485 61.6707117,61.6707117 C61.8545485,61.4868748 61.968254,61.2329065 61.968254,60.952381 L61.968254,3.04761905 C61.968254,2.76709346 61.8545485,2.51312521 61.6707117,2.32928835 C61.4868748,2.14545149 61.2329065,2.03174603 60.952381,2.03174603 Z" fill="#C3CCD4" fill-rule="evenodd"></path>
                <path stroke="#C3CCD4" stroke-width="2.03174603" d="M60.952381,1.01587302 L3.04761905,1.01587302 C2.48656787,1.01587302 1.97863137,1.24328394 1.61095765,1.61095765 C1.24328394,1.97863137 1.01587302,2.48656787 1.01587302,3.04761905 L1.01587302,60.952381 C1.01587302,61.5134321 1.24328394,62.0213686 1.61095765,62.3890423 C1.97863137,62.7567161 2.48656787,62.984127 3.04761905,62.984127 L60.952381,62.984127 C61.5134321,62.984127 62.0213686,62.7567161 62.3890423,62.3890423 C62.7567161,62.0213686 62.984127,61.5134321 62.984127,60.952381 L62.984127,3.04761905 C62.984127,2.48656787 62.7567161,1.97863137 62.3890423,1.61095765 C62.0213686,1.24328394 61.5134321,1.01587302 60.952381,1.01587302 Z"></path>
            </g>
            <path id="response-arrow" d="M35.3589249,35.0793651 C35.4885724,35.0793651 35.6164395,35.1098926 35.7323998,35.1685302 L35.7323998,35.1685302 L48.0619862,41.403219 C48.4745152,41.6118221 48.6417256,42.1191408 48.4354611,42.536347 C48.3546523,42.6997971 48.2236039,42.8323313 48.0619862,42.9140564 L48.0619862,42.9140564 L35.7323998,49.1487451 C35.3198708,49.3573483 34.8182395,49.188242 34.611975,48.7710358 C34.5539948,48.6537607 34.5238095,48.5244439 34.5238095,48.3933264 L34.5238095,48.3933264 L34.523,43.174 L33.015874,43.1746032 C32.4548228,43.1746032 32.0000009,42.7197813 32.0000009,42.1587302 C32.0000009,41.6350824 32.3962013,41.2039722 32.9051834,41.1488181 L33.015874,41.1428571 L34.523,41.142 L34.5238095,35.9239489 C34.5238095,35.4933789 34.8423937,35.138062 35.2541698,35.0859456 Z M20.8253971,41.1428571 C21.3864482,41.1428571 21.8412701,41.597679 21.8412701,42.1587302 C21.8412701,42.6823779 21.4450697,43.1134881 20.9360876,43.1686422 L20.8253971,43.1746032 L16.7619048,43.1746032 C16.2008536,43.1746032 15.7460317,42.7197813 15.7460317,42.1587302 C15.7460317,41.6350824 16.1422321,41.2039722 16.6512142,41.1488181 L16.7619048,41.1428571 L20.8253971,41.1428571 Z M28.9523817,41.1428571 C29.5134328,41.1428571 29.9682547,41.597679 29.9682547,42.1587302 C29.9682547,42.6823779 29.5720543,43.1134881 29.0630722,43.1686422 L28.9523817,43.1746032 L24.8888894,43.1746032 C24.3278382,43.1746032 23.8730163,42.7197813 23.8730163,42.1587302 C23.8730163,41.6350824 24.2692167,41.2039722 24.7781988,41.1488181 L24.8888894,41.1428571 L28.9523817,41.1428571 Z" fill="#FFFFFF" fill-rule="nonzero"></path>
            <path id="request-arrow" d="M28.7755367,18.9147469 C29.1880657,18.7061438 29.689697,18.87525 29.8959615,19.2924563 C29.9539417,19.4097313 29.984127,19.5390481 29.984127,19.6701656 L29.984127,19.6701656 L29.984,24.888 L47.7460317,24.8888889 C48.3070829,24.8888889 48.7619048,25.3437107 48.7619048,25.9047619 C48.7619048,26.4284097 48.3657044,26.8595199 47.8567223,26.9146739 L47.7460317,26.9206349 L29.984,26.92 L29.984127,32.1395432 C29.984127,32.5701131 29.6655428,32.9254301 29.2537667,32.9775465 L29.1490116,32.984127 C29.0193641,32.984127 28.891497,32.9535994 28.7755367,32.8949619 L28.7755367,32.8949619 L16.4459503,26.6602731 C16.0334213,26.45167 15.8662109,25.9443513 16.0724754,25.5271451 C16.1532842,25.363695 16.2843326,25.2311608 16.4459503,25.1494357 L16.4459503,25.1494357 Z" fill="#FFFFFF" fill-rule="nonzero"></path>
        </g>
        <g id="rest" transform="translate(170.000000, 79.000000)">
            <g id="response-rest-group" transform="translate(0.000000, 254.000000)">
                <g id="response-rest">
                    <circle id="rest-circle" fill="#8BB736" cx="100" cy="21" r="21"></circle>
                    <path d="M99.2173912,31.0776399 L96.7391304,29.6055902 C96.3664595,29.4006212 96.5527951,29.326087 96.6645962,29.2888199 C97.1677018,29.1211182 97.2608695,29.083851 97.7826087,28.7857143 C97.8385092,28.7484473 97.9130435,28.7670808 97.9689441,28.8043479 L99.8695652,29.9409939 C99.9440995,29.978261 100.037267,29.978261 100.093168,29.9409939 L107.52795,25.6366461 C107.602485,25.5993789 107.639752,25.5248448 107.639752,25.4316771 L107.639752,16.841615 C107.639752,16.7484472 107.602485,16.6739131 107.52795,16.636646 L100.093168,12.3509317 C100.018634,12.3136646 99.9254659,12.3136646 99.8695652,12.3509317 L92.4347825,16.636646 C92.3602484,16.6739131 92.3229814,16.7670808 92.3229814,16.841615 L92.3229814,25.4316771 C92.3229814,25.5062113 92.3602484,25.5993789 92.4347825,25.6366461 L94.4658385,26.8105592 C95.5652174,27.3695653 96.2546584,26.7173915 96.2546584,26.0652175 L96.2546584,17.5869565 C96.2546584,17.4751554 96.3478261,17.3633541 96.4782608,17.3633541 L97.4285714,17.3633541 C97.5403727,17.3633541 97.6521739,17.4565218 97.6521739,17.5869565 L97.6521739,26.0652175 C97.6521739,27.5372672 96.8509317,28.39441 95.4534161,28.39441 C95.0248447,28.39441 94.689441,28.39441 93.7391304,27.9285715 L91.7826087,26.8105592 C91.2981367,26.5310559 91,26.0093169 91,25.4503106 L91,16.8602484 C91,16.3012423 91.2981367,15.7795031 91.7826087,15.5 L99.2173912,11.1956521 C99.6832298,10.9347826 100.31677,10.9347826 100.782609,11.1956521 L108.217391,15.5 C108.701863,15.7795031 109,16.3012423 109,16.8602484 L109,25.4503106 C109,26.0093169 108.701863,26.5310559 108.217391,26.8105592 L100.782609,31.1149069 C100.540373,31.2267082 100.26087,31.2826089 100,31.2826089 C99.7204968,31.2826089 99.4596273,31.2080746 99.2173912,31.0776399 Z M98.3602484,22.6180125 C98.3602484,22.5062112 98.4534162,22.3944101 98.5838508,22.3944101 L99.5527951,22.3944101 C99.6645962,22.3944101 99.7577639,22.4689441 99.7577639,22.5807454 C99.9068322,23.5683231 100.335404,24.0527951 102.310559,24.0527951 C103.875776,24.0527951 104.546584,23.6987578 104.546584,22.8602485 C104.546584,22.3757765 104.360248,22.0217392 101.919255,21.7795031 C99.8881988,21.5745342 98.6211181,21.1273292 98.6211181,19.5062112 C98.6211181,17.9968944 99.8881988,17.1024845 102.012422,17.1024845 C104.397516,17.1024845 105.571429,17.9223604 105.720497,19.7111802 C105.720497,19.7670808 105.701863,19.8229815 105.664596,19.8788821 C105.627329,19.9161491 105.571429,19.9534161 105.515528,19.9534161 L104.546584,19.9534161 C104.453416,19.9534161 104.360248,19.8788821 104.341615,19.7857144 C104.118013,18.7608697 103.540373,18.4254658 102.012422,18.4254658 C100.298137,18.4254658 100.093168,19.0217392 100.093168,19.4689441 C100.093168,20.0093168 100.335404,20.1770188 102.645963,20.4751554 C104.937888,20.773292 106.018634,21.2018634 106.018634,22.8043478 C106,24.4440995 104.658385,25.3757765 102.291926,25.3757765 C99.0310559,25.3757765 98.3602484,23.8850932 98.3602484,22.6180125 Z" id="nodejs-logo" fill="#FFFFFF" fill-rule="nonzero"></path>
                    <path d="M7.46875,75.9365234 L7.46875,75 L6.72363281,75 C5.69824219,75 5.5,74.7607422 5.5,73.5712891 L5.5,71.7460938 C5.5,70.7890625 4.78222656,70.1533203 3.39453125,70.1259766 L3.39453125,70.0166016 C4.78222656,69.9824219 5.5,69.3466797 5.5,68.3896484 L5.5,66.5644531 C5.5,65.375 5.69824219,65.1357422 6.72363281,65.1357422 L7.46875,65.1357422 L7.46875,64.1992188 L6.5390625,64.1992188 C4.87792969,64.1992188 4.3515625,64.7255859 4.3515625,66.4140625 L4.3515625,67.9453125 C4.3515625,69.0048828 3.73632812,69.6132812 2.13671875,69.4492188 L2.13671875,70.6865234 C3.73632812,70.5224609 4.3515625,71.1376953 4.3515625,72.1904297 L4.3515625,73.7216797 C4.3515625,75.4101562 4.87792969,75.9365234 6.5390625,75.9365234 L7.46875,75.9365234 Z M21.4003906,69.5380859 L21.4003906,65.1357422 L20.1494141,65.1357422 L20.1494141,69.5380859 L21.4003906,69.5380859 Z M24.0732422,69.5380859 L24.0732422,65.1357422 L22.8154297,65.1357422 L22.8154297,69.5380859 L24.0732422,69.5380859 Z M30.8339844,75 L30.8339844,68.5947266 L34.0947266,68.5947266 L34.0947266,67.6035156 L30.8203125,67.6035156 L30.8203125,66.8378906 C30.8203125,66.0927734 31.3671875,65.7099609 32.3994141,65.7099609 C32.8164062,65.7099609 33.7734375,65.7373047 34.0947266,65.7714844 L34.0947266,64.8212891 C33.8486328,64.7871094 32.8164062,64.7529297 32.3857422,64.7529297 C30.5605469,64.7529297 29.671875,65.4228516 29.671875,66.8583984 L29.671875,67.6035156 L27.6826172,67.6035156 L27.6826172,68.5947266 L29.671875,68.5947266 L29.671875,75 L30.8339844,75 Z M39.5498047,65.7646484 C40.0966797,65.7646484 40.5136719,65.3544922 40.5136719,64.8076172 C40.5136719,64.2675781 40.0966797,63.8574219 39.5498047,63.8574219 C39.0029297,63.8574219 38.5859375,64.2675781 38.5859375,64.8076172 C38.5859375,65.3544922 39.0029297,65.7646484 39.5498047,65.7646484 Z M42.6601562,75 L42.6601562,74.0361328 L40.2060547,74.0361328 L40.2060547,67.5830078 L36.5351562,67.5830078 L36.5351562,68.546875 L39.0576172,68.546875 L39.0576172,74.0361328 L36.5146484,74.0361328 L36.5146484,75 L42.6601562,75 Z M50.0771484,75 L50.0771484,74.0703125 L47.7802734,74.0703125 L47.7802734,71.6777344 C47.7802734,69.7910156 48.7509766,68.65625 50.3916016,68.65625 C50.7949219,68.65625 51.2734375,68.7382812 51.6152344,68.8613281 L51.6152344,67.5556641 C51.3691406,67.453125 50.9658203,67.3916016 50.5419922,67.3916016 C49.1132812,67.3916016 48.1904297,68.1025391 47.9169922,69.4765625 L47.7666016,69.4765625 L47.7666016,67.5830078 L44.9980469,67.5830078 L44.9980469,68.5126953 L46.6455078,68.5126953 L46.6455078,74.0703125 L45.1484375,74.0703125 L45.1484375,75 L50.0771484,75 Z M56.7421875,75.1367188 C58.4990234,75.1367188 59.640625,74.2480469 59.640625,72.8808594 C59.640625,71.8076172 58.984375,71.1787109 57.5419922,70.8505859 L56.4960938,70.6113281 C55.5664062,70.40625 55.1835938,70.0849609 55.1835938,69.5175781 C55.1835938,68.8408203 55.7919922,68.4033203 56.7353516,68.4033203 C57.6035156,68.4033203 58.2255859,68.7998047 58.3623047,69.4492188 L59.4833984,69.4492188 C59.3466797,68.2119141 58.3007812,67.4394531 56.7558594,67.4394531 C55.1220703,67.4394531 54.0283203,68.3007812 54.0283203,69.5859375 C54.0283203,70.6386719 54.6914062,71.3154297 56.03125,71.6230469 L57.1318359,71.8759766 C58.0751953,72.0878906 58.4375,72.4023438 58.4375,72.9902344 C58.4375,73.7011719 57.7949219,74.1591797 56.7832031,74.1591797 C55.8261719,74.1591797 55.1699219,73.7626953 54.9990234,73.0791016 L53.8164062,73.0791016 C53.9462891,74.3505859 55.0605469,75.1367188 56.7421875,75.1367188 Z M66.8115234,75.0341797 C67.1669922,75.0341797 68.0693359,75 68.2539062,74.9658203 L68.2539062,73.9814453 C68.0556641,74.0019531 67.3105469,74.0224609 66.8935547,74.0224609 C65.8476562,74.0224609 65.2802734,73.5849609 65.2802734,72.7783203 L65.2802734,68.5947266 L68.2744141,68.5947266 L68.2744141,67.6035156 L65.2666016,67.6035156 L65.2666016,65.59375 L64.1181641,65.59375 L64.1181641,67.6035156 L62.1425781,67.6035156 L62.1425781,68.5947266 L64.1181641,68.5947266 L64.1181641,72.7919922 C64.1181641,74.3369141 64.9726562,75.0341797 66.8115234,75.0341797 Z M71.8427734,75 L71.8427734,67.3027344 L71.9384766,67.3027344 L76.1767578,75 L77.3183594,75 L77.3183594,65.1357422 L76.2314453,65.1357422 L76.2314453,72.8125 L76.1357422,72.8125 L71.9111328,65.1357422 L70.7558594,65.1357422 L70.7558594,75 L71.8427734,75 Z M81.9394531,75.1298828 C83.0195312,75.1298828 83.8261719,74.6855469 84.1816406,73.8925781 L84.2978516,73.8925781 L84.2978516,75.0068359 L85.4052734,75.0068359 L85.4052734,69.9277344 C85.4052734,68.3828125 84.4072266,67.4941406 82.6640625,67.4941406 C81.1464844,67.4941406 79.9980469,68.3076172 79.8613281,69.4970703 L81.0029297,69.4970703 C81.1943359,68.8613281 81.7958984,68.4990234 82.6503906,68.4990234 C83.6826172,68.4990234 84.25,69.0117188 84.25,69.9414062 L84.25,70.6113281 L82.2128906,70.7138672 C80.5244141,70.8027344 79.5810547,71.5820312 79.5810547,72.8945312 C79.5810547,74.2412109 80.5244141,75.1298828 81.9394531,75.1298828 Z M82.2744141,74.1113281 C81.3378906,74.1113281 80.7568359,73.6328125 80.7568359,72.8535156 C80.7568359,72.0810547 81.3037109,71.6367188 82.3427734,71.5888672 L84.25,71.5 L84.25,72.375 C84.25,73.3662109 83.3955078,74.1113281 82.2744141,74.1113281 Z M88.8164062,75 L88.8164062,69.9960938 C88.8164062,69.0732422 89.2265625,68.5058594 89.8828125,68.5058594 C90.5117188,68.5058594 90.8398438,68.9775391 90.8398438,69.8730469 L90.8398438,75 L91.8789062,75 L91.8789062,69.9960938 C91.8789062,69.0732422 92.2753906,68.5058594 92.9248047,68.5058594 C93.546875,68.5058594 93.875,68.9775391 93.875,69.8798828 L93.875,75 L94.9208984,75 L94.9208984,69.5380859 C94.9208984,68.1640625 94.3808594,67.4462891 93.3486328,67.4462891 C92.6035156,67.4462891 92.0087891,67.8974609 91.8173828,68.6083984 L91.6943359,68.6083984 C91.5371094,67.8769531 91.0449219,67.4462891 90.3476562,67.4462891 C89.6503906,67.4462891 89.1171875,67.8837891 88.9326172,68.6289062 L88.8095703,68.6289062 L88.8095703,67.5830078 L87.7705078,67.5830078 L87.7705078,75 L88.8164062,75 Z M100.170898,75.1367188 C101.729492,75.1367188 102.905273,74.3095703 103.130859,73.0859375 L102.00293,73.0859375 C101.797852,73.7353516 101.107422,74.1318359 100.170898,74.1318359 C98.90625,74.1318359 98.0996094,73.2568359 98.0996094,71.8964844 L98.0996094,71.5957031 L103.151367,71.5957031 L103.151367,70.8710938 C103.151367,68.7246094 102.016602,67.4462891 100.088867,67.4462891 C98.2021484,67.4462891 96.9511719,68.7314453 96.9511719,70.6865234 L96.9511719,71.8007812 C96.9511719,73.9130859 98.1337891,75.1367188 100.170898,75.1367188 Z M102.00293,70.7138672 L98.0996094,70.7138672 C98.0996094,69.2919922 98.8447266,68.4443359 100.082031,68.4443359 C101.27832,68.4443359 102.00293,69.2988281 102.00293,70.7138672 Z M107.943359,69.5380859 L107.943359,65.1357422 L106.692383,65.1357422 L106.692383,69.5380859 L107.943359,69.5380859 Z M110.616211,69.5380859 L110.616211,65.1357422 L109.358398,65.1357422 L109.358398,69.5380859 L110.616211,69.5380859 Z M117.308594,69.7910156 C117.985352,69.7910156 118.545898,69.2167969 118.545898,68.5263672 C118.545898,67.8359375 117.985352,67.2617188 117.308594,67.2617188 C116.631836,67.2617188 116.071289,67.8359375 116.071289,68.5263672 C116.071289,69.2167969 116.631836,69.7910156 117.308594,69.7910156 Z M117.308594,75.0410156 C117.985352,75.0410156 118.545898,74.4736328 118.545898,73.7763672 C118.545898,73.0859375 117.985352,72.5185547 117.308594,72.5185547 C116.631836,72.5185547 116.071289,73.0859375 116.071289,73.7763672 C116.071289,74.4736328 116.631836,75.0410156 117.308594,75.0410156 Z M133.90625,69.5380859 L133.90625,65.1357422 L132.655273,65.1357422 L132.655273,69.5380859 L133.90625,69.5380859 Z M136.579102,69.5380859 L136.579102,65.1357422 L135.321289,65.1357422 L135.321289,69.5380859 L136.579102,69.5380859 Z M142.984375,75.2050781 C144.80957,75.2050781 145.923828,74.0703125 145.923828,72.1904297 L145.923828,65.1357422 L141.323242,65.1357422 L141.323242,66.2089844 L144.713867,66.2089844 L144.713867,72.15625 C144.713867,73.3730469 144.084961,74.0566406 142.970703,74.0566406 C141.993164,74.0566406 141.302734,73.4414062 141.268555,72.5322266 L140.085938,72.5322266 C140.092773,74.125 141.268555,75.2050781 142.984375,75.2050781 Z M151.925781,75.1367188 C153.887695,75.1367188 155.138672,73.8583984 155.138672,71.8554688 L155.138672,70.734375 C155.138672,68.7314453 153.887695,67.453125 151.925781,67.453125 C149.963867,67.453125 148.712891,68.7314453 148.712891,70.734375 L148.712891,71.8554688 C148.712891,73.8583984 149.963867,75.1367188 151.925781,75.1367188 Z M151.925781,74.1044922 C150.654297,74.1044922 149.861328,73.2089844 149.861328,71.7460938 L149.861328,70.8369141 C149.861328,69.3808594 150.654297,68.4785156 151.925781,68.4785156 C153.197266,68.4785156 153.990234,69.3808594 153.990234,70.8369141 L153.990234,71.7460938 C153.990234,73.2089844 153.197266,74.1044922 151.925781,74.1044922 Z M158.700195,75 L158.700195,70.6386719 C158.700195,69.3740234 159.527344,68.5195312 160.750977,68.5195312 C161.913086,68.5195312 162.459961,69.1552734 162.459961,70.4882812 L162.459961,75 L163.62207,75 L163.62207,70.1943359 C163.62207,68.4238281 162.74707,67.453125 161.133789,67.453125 C159.999023,67.453125 159.144531,67.9726562 158.754883,68.8955078 L158.65918,68.8955078 L158.65918,64.6708984 L157.538086,64.6708984 L157.538086,75 L158.700195,75 Z M167.361328,75 L167.361328,70.6318359 C167.361328,69.3671875 168.181641,68.5126953 169.405273,68.5126953 C170.560547,68.5126953 171.107422,69.1416016 171.107422,70.4814453 L171.107422,75 L172.269531,75 L172.269531,70.1875 C172.269531,68.4101562 171.394531,67.4462891 169.78125,67.4462891 C168.65332,67.4462891 167.805664,67.9658203 167.40918,68.8886719 L167.313477,68.8886719 L167.313477,67.5830078 L166.199219,67.5830078 L166.199219,75 L167.361328,75 Z M177.177734,69.5380859 L177.177734,65.1357422 L175.926758,65.1357422 L175.926758,69.5380859 L177.177734,69.5380859 Z M179.850586,69.5380859 L179.850586,65.1357422 L178.592773,65.1357422 L178.592773,69.5380859 L179.850586,69.5380859 Z M193.460938,75.9365234 C195.12207,75.9365234 195.648438,75.4101562 195.648438,73.7216797 L195.648438,72.1904297 C195.648438,71.1376953 196.263672,70.5224609 197.863281,70.6865234 L197.863281,69.4492188 C196.263672,69.6132812 195.648438,69.0048828 195.648438,67.9453125 L195.648438,66.4140625 C195.648438,64.7255859 195.12207,64.1992188 193.460938,64.1992188 L192.53125,64.1992188 L192.53125,65.1357422 L193.276367,65.1357422 C194.301758,65.1357422 194.5,65.375 194.5,66.5644531 L194.5,68.3896484 C194.5,69.3466797 195.217773,69.9824219 196.605469,70.0166016 L196.605469,70.1259766 C195.217773,70.1533203 194.5,70.7890625 194.5,71.7460938 L194.5,73.5712891 C194.5,74.7607422 194.301758,75 193.276367,75 L192.53125,75 L192.53125,75.9365234 L193.460938,75.9365234 Z" id="{&quot;firstName&quot;:&quot;John&quot;}" fill="#323E48" fill-rule="nonzero"></path>
                </g>
            </g>
            <path d="M65.5605469,13.2050781 C67.5498047,13.2050781 68.9443359,11.9335938 68.9443359,10.0810547 L68.9443359,7.98242188 L65.4511719,7.98242188 L65.4511719,9.01464844 L67.7275391,9.01464844 L67.7275391,9.97851562 C67.7275391,11.2705078 66.8935547,12.0634766 65.546875,12.0634766 C63.9541016,12.0634766 63.1201172,10.9902344 63.1201172,8.94628906 L63.1201172,7.18945312 C63.1201172,5.14550781 63.9472656,4.07226562 65.5400391,4.07226562 C66.7978516,4.07226562 67.6728516,4.94042969 67.7275391,6.22558594 L68.9443359,6.22558594 C68.8964844,4.18164062 67.6113281,2.93066406 65.5605469,2.93066406 C63.2431641,2.93066406 61.9033203,4.48925781 61.9033203,7.18945312 L61.9033203,8.94628906 C61.9033203,11.6464844 63.2431641,13.2050781 65.5605469,13.2050781 Z M77.1064453,13 L77.1064453,11.8925781 L72.4921875,11.8925781 L72.4921875,8.50195312 L76.8535156,8.50195312 L76.8535156,7.44238281 L72.4921875,7.44238281 L72.4921875,4.24316406 L77.1064453,4.24316406 L77.1064453,3.13574219 L71.2822266,3.13574219 L71.2822266,13 L77.1064453,13 Z M83.2929688,13 L83.2929688,4.24316406 L86.2734375,4.24316406 L86.2734375,3.13574219 L79.109375,3.13574219 L79.109375,4.24316406 L82.0898438,4.24316406 L82.0898438,13 L83.2929688,13 Z M98.5917969,14.5039062 L103.28125,1.63183594 L101.360352,1.63183594 L96.71875,14.5039062 L98.5917969,14.5039062 Z M107.813477,13.1640625 C108.900391,13.1640625 109.713867,12.6445312 110.083008,11.7353516 L110.199219,11.7353516 L110.199219,13 L112.010742,13 L112.010742,5.45996094 L110.144531,5.45996094 L110.144531,9.82128906 C110.144531,10.8603516 109.522461,11.5234375 108.56543,11.5234375 C107.615234,11.5234375 107.170898,10.9970703 107.170898,9.88964844 L107.170898,5.45996094 L105.297852,5.45996094 L105.297852,10.3408203 C105.297852,12.1796875 106.172852,13.1640625 107.813477,13.1640625 Z M117.31543,13.1572266 C119.277344,13.1572266 120.521484,12.1933594 120.521484,10.6689453 C120.521484,9.52050781 119.844727,8.87109375 118.320312,8.55664062 L117.151367,8.31738281 C116.419922,8.16699219 116.105469,7.92089844 116.105469,7.51074219 C116.105469,7.03222656 116.577148,6.7109375 117.288086,6.7109375 C117.985352,6.7109375 118.477539,7.01855469 118.566406,7.51757812 L120.330078,7.51757812 C120.241211,6.10253906 119.126953,5.28222656 117.301758,5.28222656 C115.435547,5.28222656 114.259766,6.19824219 114.259766,7.66113281 C114.259766,8.82324219 114.977539,9.56152344 116.392578,9.86914062 L117.520508,10.1083984 C118.313477,10.2792969 118.600586,10.484375 118.600586,10.9082031 C118.600586,11.4003906 118.108398,11.7216797 117.342773,11.7216797 C116.563477,11.7216797 116.057617,11.4345703 115.941406,10.9150391 L114.095703,10.9150391 C114.198242,12.3300781 115.387695,13.1572266 117.31543,13.1572266 Z M126.120117,13.1640625 C127.870117,13.1640625 129.203125,12.2138672 129.360352,10.8808594 L127.59668,10.8808594 C127.459961,11.3730469 126.865234,11.7148438 126.113281,11.7148438 C125.135742,11.7148438 124.5,11.0722656 124.5,10.0878906 L124.5,9.67773438 L129.360352,9.67773438 L129.360352,8.63867188 C129.360352,6.61523438 128.082031,5.30273438 126.085938,5.30273438 C124.035156,5.30273438 122.667969,6.60839844 122.667969,8.58398438 L122.667969,9.79394531 C122.667969,11.9335938 123.925781,13.1640625 126.120117,13.1640625 Z M127.555664,8.48144531 L124.5,8.48144531 C124.5,7.40136719 125.081055,6.75195312 126.051758,6.75195312 C126.995117,6.75195312 127.555664,7.40136719 127.555664,8.48144531 Z M136.661133,13 L136.661133,11.6259766 L134.473633,11.6259766 L134.473633,9.65722656 C134.473633,8.03710938 135.341797,7.23046875 137.119141,7.23046875 C137.542969,7.23046875 138.035156,7.31933594 138.376953,7.44921875 L138.376953,5.41894531 C138.110352,5.31640625 137.727539,5.26171875 137.303711,5.26171875 C135.881836,5.26171875 135.109375,5.89746094 134.78125,7.39453125 L134.487305,7.39453125 L134.487305,5.45996094 L131.110352,5.45996094 L131.110352,6.84082031 L132.682617,6.84082031 L132.682617,11.6259766 L131.24707,11.6259766 L131.24707,13 L136.661133,13 Z" id="request-rest" fill="#323E48" fill-rule="nonzero"></path>
        </g>
        <g id="graphql" transform="translate(187.000000, 79.000000)">
            <g id="response-graphql-group" transform="translate(0.000000, 254.000000)">
                <g id="response-graphql">
                    <circle id="graphql-circle" fill="#D147A7" cx="83" cy="21" r="21"></circle>
                    <g id="graphql-logo" transform="translate(74.000000, 11.000000)" fill="#FFFFFF" fill-rule="nonzero">
                        <polygon id="Rectangle" transform="translate(5.418247, 8.013605) rotate(-149.999272) translate(-5.418247, -8.013605) " points="4.99139911 -0.222499371 5.84509461 -0.222499371 5.84509461 16.2497097 4.99139911 16.2497097"></polygon>
                        <rect id="Rectangle" x="0.761142857" y="13.7931429" width="16.4725714" height="1"></rect>
                        <polygon id="Rectangle" transform="translate(5.420206, 16.281663) rotate(-149.999272) translate(-5.420206, -16.281663) " points="0.663168087 15.8548157 10.1772445 15.8548157 10.1772445 16.7085112 0.663168087 16.7085112"></polygon>
                        <polygon id="Rectangle" transform="translate(12.577747, 3.883315) rotate(-149.999272) translate(-12.577747, -3.883315) " points="7.82070866 3.45646711 17.3347851 3.45646711 17.3347851 4.31016261 7.82070866 4.31016261"></polygon>
                        <polygon id="Rectangle" transform="translate(5.422490, 3.880065) rotate(-120.000728) translate(-5.422490, -3.880065) " points="4.99564196 -0.876973627 5.84933747 -0.876973627 5.84933747 8.63710277 4.99564196 8.63710277"></polygon>
                        <polygon id="Rectangle" transform="translate(12.583605, 8.013759) rotate(-120.000728) translate(-12.583605, -8.013759) " points="4.34750006 7.58691168 20.8197091 7.58691168 20.8197091 8.44060718 4.34750006 8.44060718"></polygon>
                        <rect id="Rectangle" x="1.41428571" y="5.32285714" width="1" height="9.51428571"></rect>
                        <rect id="Rectangle" x="15.732" y="5.32285714" width="1" height="9.51428571"></rect>
                        <polygon id="Rectangle" transform="translate(12.577711, 16.276917) rotate(-120.000728) translate(-12.577711, -16.276917) " points="12.2048619 12.139579 12.9505598 12.139579 12.9505598 20.4142541 12.2048619 20.4142541"></polygon>
                        <path d="M17.7171429,15.1148571 C17.2234286,15.9737143 16.1228571,16.2668571 15.264,15.7731429 C14.4051429,15.2794286 14.112,14.1788571 14.6057143,13.32 C15.0994286,12.4611429 16.2,12.168 17.0588571,12.6617143 C17.9228571,13.1605714 18.216,14.256 17.7171429,15.1148571" id="Path"></path>
                        <path d="M3.38914286,6.84 C2.89542857,7.69885714 1.79485714,7.992 0.936,7.49828571 C0.0771428571,7.00457143 -0.216,5.904 0.277714286,5.04514286 C0.771428571,4.18628571 1.872,3.89314286 2.73085714,4.38685714 C3.58971429,4.88571429 3.88285714,5.98114286 3.38914286,6.84" id="Path"></path>
                        <path d="M0.282857143,15.1148571 C-0.210857143,14.256 0.0822857143,13.1605714 0.941142857,12.6617143 C1.8,12.168 2.89542857,12.4611429 3.39428571,13.32 C3.888,14.1788571 3.59485714,15.2742857 2.736,15.7731429 C1.872,16.2668571 0.776571429,15.9737143 0.282857143,15.1148571" id="Path"></path>
                        <path d="M14.6108571,6.84 C14.1171429,5.98114286 14.4102857,4.88571429 15.2691429,4.38685714 C16.128,3.89314286 17.2234286,4.18628571 17.7222857,5.04514286 C18.216,5.904 17.9228571,6.99942857 17.064,7.49828571 C16.2051429,7.992 15.1045714,7.69885714 14.6108571,6.84" id="Path"></path>
                        <path d="M9,20.1497143 C8.00742857,20.1497143 7.20514286,19.3474286 7.20514286,18.3548571 C7.20514286,17.3622857 8.00742857,16.56 9,16.56 C9.99257143,16.56 10.7948571,17.3622857 10.7948571,18.3548571 C10.7948571,19.3422857 9.99257143,20.1497143 9,20.1497143" id="Path"></path>
                        <path d="M9,3.6 C8.00742857,3.6 7.20514286,2.79771429 7.20514286,1.80514286 C7.20514286,0.812571429 8.00742857,0.0102857143 9,0.0102857143 C9.99257143,0.0102857143 10.7948571,0.812571429 10.7948571,1.80514286 C10.7948571,2.79771429 9.99257143,3.6 9,3.6" id="Path"></path>
                    </g>
                    <path d="M3.78027344,75.1367188 C4.90820312,75.1367188 5.75585938,74.6171875 6.15234375,73.6943359 L6.24804688,73.6943359 L6.24804688,75 L7.36230469,75 L7.36230469,67.5830078 L6.20019531,67.5830078 L6.20019531,71.9511719 C6.20019531,73.2158203 5.37988281,74.0703125 4.15625,74.0703125 C3.00097656,74.0703125 2.45410156,73.4414062 2.45410156,72.1015625 L2.45410156,67.5830078 L1.29199219,67.5830078 L1.29199219,72.3955078 C1.29199219,74.1728516 2.16699219,75.1367188 3.78027344,75.1367188 Z M12.9951172,75.1367188 C14.7519531,75.1367188 15.8935547,74.2480469 15.8935547,72.8808594 C15.8935547,71.8076172 15.2373047,71.1787109 13.7949219,70.8505859 L12.7490234,70.6113281 C11.8193359,70.40625 11.4365234,70.0849609 11.4365234,69.5175781 C11.4365234,68.8408203 12.0449219,68.4033203 12.9882812,68.4033203 C13.8564453,68.4033203 14.4785156,68.7998047 14.6152344,69.4492188 L15.7363281,69.4492188 C15.5996094,68.2119141 14.5537109,67.4394531 13.0087891,67.4394531 C11.375,67.4394531 10.28125,68.3007812 10.28125,69.5859375 C10.28125,70.6386719 10.9443359,71.3154297 12.2841797,71.6230469 L13.3847656,71.8759766 C14.328125,72.0878906 14.6904297,72.4023438 14.6904297,72.9902344 C14.6904297,73.7011719 14.0478516,74.1591797 13.0361328,74.1591797 C12.0791016,74.1591797 11.4228516,73.7626953 11.2519531,73.0791016 L10.0693359,73.0791016 C10.1992188,74.3505859 11.3134766,75.1367188 12.9951172,75.1367188 Z M21.8066406,75.1367188 C23.3652344,75.1367188 24.5410156,74.3095703 24.7666016,73.0859375 L23.6386719,73.0859375 C23.4335938,73.7353516 22.7431641,74.1318359 21.8066406,74.1318359 C20.5419922,74.1318359 19.7353516,73.2568359 19.7353516,71.8964844 L19.7353516,71.5957031 L24.7871094,71.5957031 L24.7871094,70.8710938 C24.7871094,68.7246094 23.6523438,67.4462891 21.7246094,67.4462891 C19.8378906,67.4462891 18.5869141,68.7314453 18.5869141,70.6865234 L18.5869141,71.8007812 C18.5869141,73.9130859 19.7695312,75.1367188 21.8066406,75.1367188 Z M23.6386719,70.7138672 L19.7353516,70.7138672 C19.7353516,69.2919922 20.4804688,68.4443359 21.7177734,68.4443359 C22.9140625,68.4443359 23.6386719,69.2988281 23.6386719,70.7138672 Z M32.2929688,75 L32.2929688,74.0703125 L29.9960938,74.0703125 L29.9960938,71.6777344 C29.9960938,69.7910156 30.9667969,68.65625 32.6074219,68.65625 C33.0107422,68.65625 33.4892578,68.7382812 33.8310547,68.8613281 L33.8310547,67.5556641 C33.5849609,67.453125 33.1816406,67.3916016 32.7578125,67.3916016 C31.3291016,67.3916016 30.40625,68.1025391 30.1328125,69.4765625 L29.9824219,69.4765625 L29.9824219,67.5830078 L27.2138672,67.5830078 L27.2138672,68.5126953 L28.8613281,68.5126953 L28.8613281,74.0703125 L27.3642578,74.0703125 L27.3642578,75 L32.2929688,75 Z M50.2646484,75.9365234 L50.2646484,75 L49.5195312,75 C48.4941406,75 48.2958984,74.7607422 48.2958984,73.5712891 L48.2958984,71.7460938 C48.2958984,70.7890625 47.578125,70.1533203 46.1904297,70.1259766 L46.1904297,70.0166016 C47.578125,69.9824219 48.2958984,69.3466797 48.2958984,68.3896484 L48.2958984,66.5644531 C48.2958984,65.375 48.4941406,65.1357422 49.5195312,65.1357422 L50.2646484,65.1357422 L50.2646484,64.1992188 L49.3349609,64.1992188 C47.6738281,64.1992188 47.1474609,64.7255859 47.1474609,66.4140625 L47.1474609,67.9453125 C47.1474609,69.0048828 46.5322266,69.6132812 44.9326172,69.4492188 L44.9326172,70.6865234 C46.5322266,70.5224609 47.1474609,71.1376953 47.1474609,72.1904297 L47.1474609,73.7216797 C47.1474609,75.4101562 47.6738281,75.9365234 49.3349609,75.9365234 L50.2646484,75.9365234 Z M21.7041016,97 L21.7041016,90.5947266 L24.9648438,90.5947266 L24.9648438,89.6035156 L21.6904297,89.6035156 L21.6904297,88.8378906 C21.6904297,88.0927734 22.2373047,87.7099609 23.2695312,87.7099609 C23.6865234,87.7099609 24.6435547,87.7373047 24.9648438,87.7714844 L24.9648438,86.8212891 C24.71875,86.7871094 23.6865234,86.7529297 23.2558594,86.7529297 C21.4306641,86.7529297 20.5419922,87.4228516 20.5419922,88.8583984 L20.5419922,89.6035156 L18.5527344,89.6035156 L18.5527344,90.5947266 L20.5419922,90.5947266 L20.5419922,97 L21.7041016,97 Z M30.4199219,87.7646484 C30.9667969,87.7646484 31.3837891,87.3544922 31.3837891,86.8076172 C31.3837891,86.2675781 30.9667969,85.8574219 30.4199219,85.8574219 C29.8730469,85.8574219 29.4560547,86.2675781 29.4560547,86.8076172 C29.4560547,87.3544922 29.8730469,87.7646484 30.4199219,87.7646484 Z M33.5302734,97 L33.5302734,96.0361328 L31.0761719,96.0361328 L31.0761719,89.5830078 L27.4052734,89.5830078 L27.4052734,90.546875 L29.9277344,90.546875 L29.9277344,96.0361328 L27.3847656,96.0361328 L27.3847656,97 L33.5302734,97 Z M40.9472656,97 L40.9472656,96.0703125 L38.6503906,96.0703125 L38.6503906,93.6777344 C38.6503906,91.7910156 39.6210938,90.65625 41.2617188,90.65625 C41.6650391,90.65625 42.1435547,90.7382812 42.4853516,90.8613281 L42.4853516,89.5556641 C42.2392578,89.453125 41.8359375,89.3916016 41.4121094,89.3916016 C39.9833984,89.3916016 39.0605469,90.1025391 38.7871094,91.4765625 L38.6367188,91.4765625 L38.6367188,89.5830078 L35.8681641,89.5830078 L35.8681641,90.5126953 L37.515625,90.5126953 L37.515625,96.0703125 L36.0185547,96.0703125 L36.0185547,97 L40.9472656,97 Z M47.6123047,97.1367188 C49.3691406,97.1367188 50.5107422,96.2480469 50.5107422,94.8808594 C50.5107422,93.8076172 49.8544922,93.1787109 48.4121094,92.8505859 L47.3662109,92.6113281 C46.4365234,92.40625 46.0537109,92.0849609 46.0537109,91.5175781 C46.0537109,90.8408203 46.6621094,90.4033203 47.6054688,90.4033203 C48.4736328,90.4033203 49.0957031,90.7998047 49.2324219,91.4492188 L50.3535156,91.4492188 C50.2167969,90.2119141 49.1708984,89.4394531 47.6259766,89.4394531 C45.9921875,89.4394531 44.8984375,90.3007812 44.8984375,91.5859375 C44.8984375,92.6386719 45.5615234,93.3154297 46.9013672,93.6230469 L48.0019531,93.8759766 C48.9453125,94.0878906 49.3076172,94.4023438 49.3076172,94.9902344 C49.3076172,95.7011719 48.6650391,96.1591797 47.6533203,96.1591797 C46.6962891,96.1591797 46.0400391,95.7626953 45.8691406,95.0791016 L44.6865234,95.0791016 C44.8164062,96.3505859 45.9306641,97.1367188 47.6123047,97.1367188 Z M57.6816406,97.0341797 C58.0371094,97.0341797 58.9394531,97 59.1240234,96.9658203 L59.1240234,95.9814453 C58.9257812,96.0019531 58.1806641,96.0224609 57.7636719,96.0224609 C56.7177734,96.0224609 56.1503906,95.5849609 56.1503906,94.7783203 L56.1503906,90.5947266 L59.1445312,90.5947266 L59.1445312,89.6035156 L56.1367188,89.6035156 L56.1367188,87.59375 L54.9882812,87.59375 L54.9882812,89.6035156 L53.0126953,89.6035156 L53.0126953,90.5947266 L54.9882812,90.5947266 L54.9882812,94.7919922 C54.9882812,96.3369141 55.8427734,97.0341797 57.6816406,97.0341797 Z M62.7128906,97 L62.7128906,89.3027344 L62.8085938,89.3027344 L67.046875,97 L68.1884766,97 L68.1884766,87.1357422 L67.1015625,87.1357422 L67.1015625,94.8125 L67.0058594,94.8125 L62.78125,87.1357422 L61.6259766,87.1357422 L61.6259766,97 L62.7128906,97 Z M72.8095703,97.1298828 C73.8896484,97.1298828 74.6962891,96.6855469 75.0517578,95.8925781 L75.1679688,95.8925781 L75.1679688,97.0068359 L76.2753906,97.0068359 L76.2753906,91.9277344 C76.2753906,90.3828125 75.2773438,89.4941406 73.5341797,89.4941406 C72.0166016,89.4941406 70.8681641,90.3076172 70.7314453,91.4970703 L71.8730469,91.4970703 C72.0644531,90.8613281 72.6660156,90.4990234 73.5205078,90.4990234 C74.5527344,90.4990234 75.1201172,91.0117188 75.1201172,91.9414062 L75.1201172,92.6113281 L73.0830078,92.7138672 C71.3945312,92.8027344 70.4511719,93.5820312 70.4511719,94.8945312 C70.4511719,96.2412109 71.3945312,97.1298828 72.8095703,97.1298828 Z M73.1445312,96.1113281 C72.2080078,96.1113281 71.6269531,95.6328125 71.6269531,94.8535156 C71.6269531,94.0810547 72.1738281,93.6367188 73.2128906,93.5888672 L75.1201172,93.5 L75.1201172,94.375 C75.1201172,95.3662109 74.265625,96.1113281 73.1445312,96.1113281 Z M79.6865234,97 L79.6865234,91.9960938 C79.6865234,91.0732422 80.0966797,90.5058594 80.7529297,90.5058594 C81.3818359,90.5058594 81.7099609,90.9775391 81.7099609,91.8730469 L81.7099609,97 L82.7490234,97 L82.7490234,91.9960938 C82.7490234,91.0732422 83.1455078,90.5058594 83.7949219,90.5058594 C84.4169922,90.5058594 84.7451172,90.9775391 84.7451172,91.8798828 L84.7451172,97 L85.7910156,97 L85.7910156,91.5380859 C85.7910156,90.1640625 85.2509766,89.4462891 84.21875,89.4462891 C83.4736328,89.4462891 82.8789062,89.8974609 82.6875,90.6083984 L82.5644531,90.6083984 C82.4072266,89.8769531 81.9150391,89.4462891 81.2177734,89.4462891 C80.5205078,89.4462891 79.9873047,89.8837891 79.8027344,90.6289062 L79.6796875,90.6289062 L79.6796875,89.5830078 L78.640625,89.5830078 L78.640625,97 L79.6865234,97 Z M91.0410156,97.1367188 C92.5996094,97.1367188 93.7753906,96.3095703 94.0009766,95.0859375 L92.8730469,95.0859375 C92.6679688,95.7353516 91.9775391,96.1318359 91.0410156,96.1318359 C89.7763672,96.1318359 88.9697266,95.2568359 88.9697266,93.8964844 L88.9697266,93.5957031 L94.0214844,93.5957031 L94.0214844,92.8710938 C94.0214844,90.7246094 92.8867188,89.4462891 90.9589844,89.4462891 C89.0722656,89.4462891 87.8212891,90.7314453 87.8212891,92.6865234 L87.8212891,93.8007812 C87.8212891,95.9130859 89.0039062,97.1367188 91.0410156,97.1367188 Z M92.8730469,92.7138672 L88.9697266,92.7138672 C88.9697266,91.2919922 89.7148438,90.4443359 90.9521484,90.4443359 C92.1484375,90.4443359 92.8730469,91.2988281 92.8730469,92.7138672 Z M99.5244141,91.7910156 C100.201172,91.7910156 100.761719,91.2167969 100.761719,90.5263672 C100.761719,89.8359375 100.201172,89.2617188 99.5244141,89.2617188 C98.8476562,89.2617188 98.2871094,89.8359375 98.2871094,90.5263672 C98.2871094,91.2167969 98.8476562,91.7910156 99.5244141,91.7910156 Z M99.5244141,97.0410156 C100.201172,97.0410156 100.761719,96.4736328 100.761719,95.7763672 C100.761719,95.0859375 100.201172,94.5185547 99.5244141,94.5185547 C98.8476562,94.5185547 98.2871094,95.0859375 98.2871094,95.7763672 C98.2871094,96.4736328 98.8476562,97.0410156 99.5244141,97.0410156 Z M116.12207,91.5380859 L116.12207,87.1357422 L114.871094,87.1357422 L114.871094,91.5380859 L116.12207,91.5380859 Z M118.794922,91.5380859 L118.794922,87.1357422 L117.537109,87.1357422 L117.537109,91.5380859 L118.794922,91.5380859 Z M125.200195,97.2050781 C127.025391,97.2050781 128.139648,96.0703125 128.139648,94.1904297 L128.139648,87.1357422 L123.539062,87.1357422 L123.539062,88.2089844 L126.929688,88.2089844 L126.929688,94.15625 C126.929688,95.3730469 126.300781,96.0566406 125.186523,96.0566406 C124.208984,96.0566406 123.518555,95.4414062 123.484375,94.5322266 L122.301758,94.5322266 C122.308594,96.125 123.484375,97.2050781 125.200195,97.2050781 Z M134.141602,97.1367188 C136.103516,97.1367188 137.354492,95.8583984 137.354492,93.8554688 L137.354492,92.734375 C137.354492,90.7314453 136.103516,89.453125 134.141602,89.453125 C132.179688,89.453125 130.928711,90.7314453 130.928711,92.734375 L130.928711,93.8554688 C130.928711,95.8583984 132.179688,97.1367188 134.141602,97.1367188 Z M134.141602,96.1044922 C132.870117,96.1044922 132.077148,95.2089844 132.077148,93.7460938 L132.077148,92.8369141 C132.077148,91.3808594 132.870117,90.4785156 134.141602,90.4785156 C135.413086,90.4785156 136.206055,91.3808594 136.206055,92.8369141 L136.206055,93.7460938 C136.206055,95.2089844 135.413086,96.1044922 134.141602,96.1044922 Z M140.916016,97 L140.916016,92.6386719 C140.916016,91.3740234 141.743164,90.5195312 142.966797,90.5195312 C144.128906,90.5195312 144.675781,91.1552734 144.675781,92.4882812 L144.675781,97 L145.837891,97 L145.837891,92.1943359 C145.837891,90.4238281 144.962891,89.453125 143.349609,89.453125 C142.214844,89.453125 141.360352,89.9726562 140.970703,90.8955078 L140.875,90.8955078 L140.875,86.6708984 L139.753906,86.6708984 L139.753906,97 L140.916016,97 Z M149.577148,97 L149.577148,92.6318359 C149.577148,91.3671875 150.397461,90.5126953 151.621094,90.5126953 C152.776367,90.5126953 153.323242,91.1416016 153.323242,92.4814453 L153.323242,97 L154.485352,97 L154.485352,92.1875 C154.485352,90.4101562 153.610352,89.4462891 151.99707,89.4462891 C150.869141,89.4462891 150.021484,89.9658203 149.625,90.8886719 L149.529297,90.8886719 L149.529297,89.5830078 L148.415039,89.5830078 L148.415039,97 L149.577148,97 Z M159.393555,91.5380859 L159.393555,87.1357422 L158.142578,87.1357422 L158.142578,91.5380859 L159.393555,91.5380859 Z M162.066406,91.5380859 L162.066406,87.1357422 L160.808594,87.1357422 L160.808594,91.5380859 L162.066406,91.5380859 Z M2.59082031,119.936523 C4.25195312,119.936523 4.77832031,119.410156 4.77832031,117.72168 L4.77832031,116.19043 C4.77832031,115.137695 5.39355469,114.522461 6.99316406,114.686523 L6.99316406,113.449219 C5.39355469,113.613281 4.77832031,113.004883 4.77832031,111.945312 L4.77832031,110.414062 C4.77832031,108.725586 4.25195312,108.199219 2.59082031,108.199219 L1.66113281,108.199219 L1.66113281,109.135742 L2.40625,109.135742 C3.43164062,109.135742 3.62988281,109.375 3.62988281,110.564453 L3.62988281,112.389648 C3.62988281,113.34668 4.34765625,113.982422 5.73535156,114.016602 L5.73535156,114.125977 C4.34765625,114.15332 3.62988281,114.789062 3.62988281,115.746094 L3.62988281,117.571289 C3.62988281,118.760742 3.43164062,119 2.40625,119 L1.66113281,119 L1.66113281,119.936523 L2.59082031,119.936523 Z" id="user{firstName:&quot;John&quot;}" fill="#323E48" fill-rule="nonzero"></path>
                </g>
            </g>
            <path d="M15.7939453,15.5019531 L15.7939453,5.58300781 L14.6455078,5.58300781 L14.6455078,6.71777344 L14.5224609,6.71777344 C14.1328125,5.89746094 13.3603516,5.45996094 12.3007812,5.45996094 C10.5849609,5.45996094 9.46386719,6.69726562 9.46386719,8.60449219 L9.46386719,9.98535156 C9.46386719,11.8857422 10.5849609,13.1230469 12.3007812,13.1230469 C13.3740234,13.1230469 14.1601562,12.6650391 14.4814453,11.8515625 L14.6113281,11.8515625 L14.6113281,15.5019531 L15.7939453,15.5019531 Z M12.6357422,12.0839844 C11.4121094,12.0839844 10.6328125,11.2021484 10.6328125,9.83496094 L10.6328125,8.76855469 C10.6328125,7.40136719 11.4121094,6.52636719 12.6357422,6.52636719 C13.859375,6.52636719 14.6386719,7.40136719 14.6386719,8.76855469 L14.6386719,9.83496094 C14.6386719,11.2089844 13.859375,12.0839844 12.6357422,12.0839844 Z M20.8730469,13.1367188 C22.0009766,13.1367188 22.8486328,12.6171875 23.2451172,11.6943359 L23.3408203,11.6943359 L23.3408203,13 L24.4550781,13 L24.4550781,5.58300781 L23.2929688,5.58300781 L23.2929688,9.95117188 C23.2929688,11.2158203 22.4726562,12.0703125 21.2490234,12.0703125 C20.09375,12.0703125 19.546875,11.4414062 19.546875,10.1015625 L19.546875,5.58300781 L18.3847656,5.58300781 L18.3847656,10.3955078 C18.3847656,12.1728516 19.2597656,13.1367188 20.8730469,13.1367188 Z M30.2451172,13.1367188 C31.8037109,13.1367188 32.9794922,12.3095703 33.2050781,11.0859375 L32.0771484,11.0859375 C31.8720703,11.7353516 31.1816406,12.1318359 30.2451172,12.1318359 C28.9804688,12.1318359 28.1738281,11.2568359 28.1738281,9.89648438 L28.1738281,9.59570312 L33.2255859,9.59570312 L33.2255859,8.87109375 C33.2255859,6.72460938 32.0908203,5.44628906 30.1630859,5.44628906 C28.2763672,5.44628906 27.0253906,6.73144531 27.0253906,8.68652344 L27.0253906,9.80078125 C27.0253906,11.9130859 28.2080078,13.1367188 30.2451172,13.1367188 Z M32.0771484,8.71386719 L28.1738281,8.71386719 C28.1738281,7.29199219 28.9189453,6.44433594 30.15625,6.44433594 C31.3525391,6.44433594 32.0771484,7.29882812 32.0771484,8.71386719 Z M40.7314453,13 L40.7314453,12.0703125 L38.4345703,12.0703125 L38.4345703,9.67773438 C38.4345703,7.79101562 39.4052734,6.65625 41.0458984,6.65625 C41.4492188,6.65625 41.9277344,6.73828125 42.2695312,6.86132812 L42.2695312,5.55566406 C42.0234375,5.453125 41.6201172,5.39160156 41.1962891,5.39160156 C39.7675781,5.39160156 38.8447266,6.10253906 38.5712891,7.4765625 L38.4208984,7.4765625 L38.4208984,5.58300781 L35.6523438,5.58300781 L35.6523438,6.51269531 L37.2998047,6.51269531 L37.2998047,12.0703125 L35.8027344,12.0703125 L35.8027344,13 L40.7314453,13 Z M45.3046875,15.6386719 C46.6787109,15.6386719 47.3007812,15.0986328 47.9501953,13.2734375 L50.7460938,5.58300781 L49.5087891,5.58300781 L47.4375,11.7900391 L47.3486328,11.7900391 L45.2705078,5.58300781 L44.0058594,5.58300781 L46.7333984,13.0478516 L46.6035156,13.4511719 C46.2958984,14.3125 45.9130859,14.6269531 45.2158203,14.6269531 C45.1064453,14.6269531 44.8945312,14.6201172 44.8056641,14.5996094 L44.8056641,15.6181641 C44.9082031,15.6318359 45.1337891,15.6386719 45.3046875,15.6386719 Z M64.8759766,13.1982422 C67.0566406,13.1982422 68.4921875,11.8652344 68.4921875,9.80761719 L68.4921875,7.75683594 L64.6777344,7.75683594 L64.6777344,9.21972656 L66.5166016,9.21972656 L66.5166016,9.76660156 C66.5166016,10.8261719 65.8876953,11.4550781 64.8486328,11.4550781 C63.625,11.4550781 62.9960938,10.6552734 62.9960938,9.07617188 L62.9960938,7.05957031 C62.9960938,5.48730469 63.6181641,4.68066406 64.8212891,4.68066406 C65.7851562,4.68066406 66.4619141,5.35742188 66.5097656,6.39648438 L68.4853516,6.39648438 C68.4306641,4.24316406 67.0566406,2.9375 64.8759766,2.9375 C62.4423828,2.9375 61.0205078,4.44824219 61.0205078,7.05957031 L61.0205078,9.07617188 C61.0205078,11.6875 62.4423828,13.1982422 64.8759766,13.1982422 Z M73.5029297,13.1640625 C75.2529297,13.1640625 76.5859375,12.2138672 76.7431641,10.8808594 L74.9794922,10.8808594 C74.8427734,11.3730469 74.2480469,11.7148438 73.4960938,11.7148438 C72.5185547,11.7148438 71.8828125,11.0722656 71.8828125,10.0878906 L71.8828125,9.67773438 L76.7431641,9.67773438 L76.7431641,8.63867188 C76.7431641,6.61523438 75.4648438,5.30273438 73.46875,5.30273438 C71.4179688,5.30273438 70.0507812,6.60839844 70.0507812,8.58398438 L70.0507812,9.79394531 C70.0507812,11.9335938 71.3085938,13.1640625 73.5029297,13.1640625 Z M74.9384766,8.48144531 L71.8828125,8.48144531 C71.8828125,7.40136719 72.4638672,6.75195312 73.4345703,6.75195312 C74.3779297,6.75195312 74.9384766,7.40136719 74.9384766,8.48144531 Z M84.9941406,12.9863281 L84.9941406,11.5097656 C84.9121094,11.5166016 83.6064453,11.5234375 83.4287109,11.5234375 C82.7109375,11.5234375 82.3076172,11.2021484 82.3076172,10.6347656 L82.3076172,7.03222656 L85.0830078,7.03222656 L85.0830078,5.53515625 L82.2734375,5.53515625 L82.2734375,3.30664062 L80.4414062,3.30664062 L80.4414062,5.53515625 L78.4794922,5.53515625 L78.4794922,7.03222656 L80.4414062,7.03222656 L80.4414062,10.6142578 C80.4414062,12.3642578 81.2275391,13.0136719 83.2783203,13.0136719 C83.4287109,13.0136719 84.9189453,13 84.9941406,12.9863281 Z M90.6542969,13.1982422 C92.9648438,13.1982422 94.3251953,11.8310547 94.3251953,9.50683594 L94.3251953,3.13574219 L92.3769531,3.13574219 L92.3769531,9.390625 C92.3769531,10.7167969 91.7617188,11.4482422 90.6542969,11.4482422 C89.546875,11.4482422 88.9316406,10.7167969 88.9316406,9.390625 L88.9316406,3.13574219 L86.9833984,3.13574219 L86.9833984,9.50683594 C86.9833984,11.8310547 88.34375,13.1982422 90.6542969,13.1982422 Z M99.3154297,13.1572266 C101.277344,13.1572266 102.521484,12.1933594 102.521484,10.6689453 C102.521484,9.52050781 101.844727,8.87109375 100.320312,8.55664062 L99.1513672,8.31738281 C98.4199219,8.16699219 98.1054688,7.92089844 98.1054688,7.51074219 C98.1054688,7.03222656 98.5771484,6.7109375 99.2880859,6.7109375 C99.9853516,6.7109375 100.477539,7.01855469 100.566406,7.51757812 L102.330078,7.51757812 C102.241211,6.10253906 101.126953,5.28222656 99.3017578,5.28222656 C97.4355469,5.28222656 96.2597656,6.19824219 96.2597656,7.66113281 C96.2597656,8.82324219 96.9775391,9.56152344 98.3925781,9.86914062 L99.5205078,10.1083984 C100.313477,10.2792969 100.600586,10.484375 100.600586,10.9082031 C100.600586,11.4003906 100.108398,11.7216797 99.3427734,11.7216797 C98.5634766,11.7216797 98.0576172,11.4345703 97.9414062,10.9150391 L96.0957031,10.9150391 C96.1982422,12.3300781 97.3876953,13.1572266 99.3154297,13.1572266 Z M108.120117,13.1640625 C109.870117,13.1640625 111.203125,12.2138672 111.360352,10.8808594 L109.59668,10.8808594 C109.459961,11.3730469 108.865234,11.7148438 108.113281,11.7148438 C107.135742,11.7148438 106.5,11.0722656 106.5,10.0878906 L106.5,9.67773438 L111.360352,9.67773438 L111.360352,8.63867188 C111.360352,6.61523438 110.082031,5.30273438 108.085938,5.30273438 C106.035156,5.30273438 104.667969,6.60839844 104.667969,8.58398438 L104.667969,9.79394531 C104.667969,11.9335938 105.925781,13.1640625 108.120117,13.1640625 Z M109.555664,8.48144531 L106.5,8.48144531 C106.5,7.40136719 107.081055,6.75195312 108.051758,6.75195312 C108.995117,6.75195312 109.555664,7.40136719 109.555664,8.48144531 Z M118.661133,13 L118.661133,11.6259766 L116.473633,11.6259766 L116.473633,9.65722656 C116.473633,8.03710938 117.341797,7.23046875 119.119141,7.23046875 C119.542969,7.23046875 120.035156,7.31933594 120.376953,7.44921875 L120.376953,5.41894531 C120.110352,5.31640625 119.727539,5.26171875 119.303711,5.26171875 C117.881836,5.26171875 117.109375,5.89746094 116.78125,7.39453125 L116.487305,7.39453125 L116.487305,5.45996094 L113.110352,5.45996094 L113.110352,6.84082031 L114.682617,6.84082031 L114.682617,11.6259766 L113.24707,11.6259766 L113.24707,13 L118.661133,13 Z M128.286133,13 L128.286133,11.3320312 L126.242188,11.3320312 L126.242188,4.80371094 L128.286133,4.80371094 L128.286133,3.13574219 L122.256836,3.13574219 L122.256836,4.80371094 L124.300781,4.80371094 L124.300781,11.3320312 L122.256836,11.3320312 L122.256836,13 L128.286133,13 Z M132.435547,13 L132.435547,8.64550781 C132.435547,7.59960938 133.057617,6.93652344 134.014648,6.93652344 C134.964844,6.93652344 135.40918,7.46289062 135.40918,8.5703125 L135.40918,13 L137.282227,13 L137.282227,8.12597656 C137.282227,6.28710938 136.407227,5.30273438 134.766602,5.30273438 C133.679688,5.30273438 132.866211,5.81542969 132.49707,6.72460938 L132.380859,6.72460938 L132.380859,5.45996094 L130.569336,5.45996094 L130.569336,13 L132.435547,13 Z M143.161133,13 L143.161133,7.03222656 L146.162109,7.03222656 L146.162109,5.53515625 L143.120117,5.53515625 L143.120117,4.87890625 C143.120117,4.31835938 143.482422,4.03125 144.186523,4.03125 L144.329286,4.03161458 C144.778546,4.03319444 146.037695,4.03990885 146.162109,4.05175781 L146.162109,2.67773438 C146.052734,2.6640625 144.316406,2.65039062 144.131836,2.65039062 C142.094727,2.65039062 141.288086,3.29296875 141.288086,5.00195312 L141.288086,5.53515625 L139.27832,5.53515625 L139.27832,7.03222656 L141.288086,7.03222656 L141.288086,13 L143.161133,13 Z M151.234375,13.1640625 C153.360352,13.1640625 154.700195,11.8720703 154.700195,9.81445312 L154.700195,8.65234375 C154.700195,6.59472656 153.360352,5.30273438 151.234375,5.30273438 C149.108398,5.30273438 147.768555,6.59472656 147.768555,8.65234375 L147.768555,9.81445312 C147.768555,11.8720703 149.108398,13.1640625 151.234375,13.1640625 Z M151.234375,11.6328125 C150.229492,11.6328125 149.607422,10.9013672 149.607422,9.73925781 L149.607422,8.72753906 C149.607422,7.55859375 150.229492,6.83398438 151.234375,6.83398438 C152.239258,6.83398438 152.861328,7.55859375 152.861328,8.72753906 L152.861328,9.73925781 C152.861328,10.9013672 152.239258,11.6328125 151.234375,11.6328125 Z" id="request-graphql" fill="#323E48" fill-rule="nonzero"></path>
        </g>
    </g>
</svg>