<?xml version="1.0" encoding="UTF-8"?>
<svg width="180px" height="180px" viewBox="0 0 180 180" version="1.1" xmlns="http://www.w3.org/2000/svg" xmlns:xlink="http://www.w3.org/1999/xlink">
    <!-- Generator: Sketch 64 (93537) - https://sketch.com -->
    <title>logo</title>
    <desc>Created with Sketch.</desc>
    <defs>
        <rect id="path-1" x="0" y="0" width="126" height="126" rx="6"></rect>
    </defs>
    <g id="logo" stroke="none" stroke-width="1" fill="none" fill-rule="evenodd">
        <g id="Logo">
            <g id="Group" transform="translate(90.000000, 90.000000) rotate(-45.000000) translate(-90.000000, -90.000000) translate(27.000000, 27.000000)">
                <g id="Rectangle" stroke-linejoin="square">
                    <rect stroke="#FFFFFF" stroke-width="8" fill="#FF9843" fill-rule="evenodd" x="4" y="4" width="118" height="118" rx="6"></rect>
                    <rect stroke="#8E460B" stroke-width="4" x="2" y="2" width="122" height="122" rx="6"></rect>
                </g>
                <path id="Line" d="M72.7649597,71 C72.9872126,71 73.2064133,71.0517463 73.4052024,71.1511408 L73.4052024,71.1511408 L94.5416362,81.7193577 C95.2488288,82.072954 95.5354752,82.9328933 95.1818789,83.640086 C95.0433495,83.9171449 94.8186951,84.1417992 94.5416362,84.2803287 L94.5416362,84.2803287 L73.4052024,94.8485456 C72.6980098,95.2021419 71.8380705,94.9154954 71.4844741,94.2083028 C71.3850796,94.0095137 71.3333333,93.790313 71.3333333,93.5680601 L71.3333333,93.5680601 L71.333,85 L65,85 C63.8954305,85 63,84.1045695 63,83 C63,81.9456382 63.8158778,81.0818349 64.8507377,81.0054857 L65,81 L71.333,81 L71.3333333,72.4316263 C71.3333333,71.6874707 71.901105,71.0759252 72.6270845,71.0065536 Z M41,81 C42.1045695,81 43,81.8954305 43,83 C43,84.0543618 42.1841222,84.9181651 41.1492623,84.9945143 L41,85 L33,85 C31.8954305,85 31,84.1045695 31,83 C31,81.9456382 31.8158778,81.0818349 32.8507377,81.0054857 L33,81 L41,81 Z M57,81 C58.1045695,81 59,81.8954305 59,83 C59,84.0543618 58.1841222,84.9181651 57.1492623,84.9945143 L57,85 L49,85 C47.8954305,85 47,84.1045695 47,83 C47,81.9456382 47.8158778,81.0818349 48.8507377,81.0054857 L49,81 L57,81 Z" fill="#8E460B" fill-rule="nonzero"></path>
                <path id="Line-Copy" d="M72.7649597,39 C72.9872126,39 73.2064133,39.0517463 73.4052024,39.1511408 L73.4052024,39.1511408 L94.5416362,49.7193577 C95.2488288,50.072954 95.5354752,50.9328933 95.1818789,51.640086 C95.0433495,51.9171449 94.8186951,52.1417992 94.5416362,52.2803287 L94.5416362,52.2803287 L73.4052024,62.8485456 C72.6980098,63.2021419 71.8380705,62.9154954 71.4844741,62.2083028 C71.3850796,62.0095137 71.3333333,61.790313 71.3333333,61.5680601 L71.3333333,61.5680601 L71.333,53 L33,53 C31.8954305,53 31,52.1045695 31,51 C31,49.9456382 31.8158778,49.0818349 32.8507377,49.0054857 L33,49 L71.333,49 L71.3333333,40.4316263 C71.3333333,39.6874707 71.901105,39.0759252 72.6270845,39.0065536 Z" fill="#8E460B" fill-rule="nonzero"></path>
            </g>
        </g>
    </g>
</svg>