<?xml version="1.0" encoding="UTF-8"?>
<svg width="364px" height="364px" viewBox="0 0 364 364" version="1.1" xmlns="http://www.w3.org/2000/svg" xmlns:xlink="http://www.w3.org/1999/xlink">
    <title>illustration</title>
    <g id="Page-1" stroke="none" stroke-width="1" fill="none" fill-rule="evenodd">
        <g id="agnostic" transform="translate(-22.000000, -20.000000)">
            <g id="illustration" transform="translate(22.000000, 20.000000)">
                <g id="connection" transform="translate(84.000000, 84.000000)" stroke="#000000" stroke-linecap="round" stroke-linejoin="round" stroke-width="2">
                    <line x1="98.5" y1="0.5" x2="99" y2="46"></line>
                    <line x1="168.84263" y1="30.7831496" x2="136.459998" y2="62.7497754"></line>
                    <line x1="30.2831496" y1="27.6573704" x2="62.2497754" y2="60.0400021"></line>
                    <line x1="99" y1="150" x2="99" y2="196" transform="translate(99.000000, 173.000000) scale(1, -1) translate(-99.000000, -173.000000) "></line>
                    <line x1="30.0570888" y1="167.442911" x2="62.5840008" y2="134.915999"></line>
                    <line x1="167.650018" y1="166.735804" x2="135.123106" y2="134.208892"></line>
                    <line x1="0" y1="98" x2="46" y2="98"></line>
                    <line x1="196" y1="98" x2="150" y2="98"></line>
                </g>
                <g id="vue" transform="translate(287.712464, 288.212464) rotate(-45.000000) translate(-287.712464, -288.212464) translate(255.712464, 256.212464)">
                    <circle id="circle" stroke="#41B883" stroke-width="2" opacity="0.25" cx="32" cy="32" r="31"></circle>
                    <g id="vue-logo" transform="translate(32.500000, 32.000000) rotate(45.000000) translate(-32.500000, -32.000000) translate(16.000000, 18.000000)" fill-rule="nonzero">
                        <polygon id="Path" fill="#41B883" transform="translate(16.552425, 13.896431) scale(1, -1) translate(-16.552425, -13.896431) " points="20.2021857 27.5832332 16.5524253 21.2616403 12.902665 27.5832332 0.748443085 27.5832332 16.5524253 0.209628257 32.3564076 27.5832332"></polygon>
                        <polygon id="Path" fill="#34495E" transform="translate(16.552425, 8.371313) scale(1, -1) translate(-16.552425, -8.371313) " points="20.2021857 16.5832332 16.5524253 10.2616403 12.902665 16.5832332 7.07003598 16.5832332 16.5524253 0.159392242 26.0348147 16.5832332"></polygon>
                    </g>
                </g>
                <g id="angular" transform="translate(76.287536, 288.212464) rotate(45.000000) translate(-76.287536, -288.212464) translate(44.287536, 256.212464)">
                    <circle id="circle" stroke="#DD0031" stroke-width="2" opacity="0.25" cx="32" cy="32" r="31"></circle>
                    <g id="angular-logo" transform="translate(32.000000, 32.021277) rotate(-45.000000) translate(-32.000000, -32.021277) translate(16.000000, 15.000000)" fill-rule="nonzero">
                        <polygon id="angular-path" fill="#DD0031" points="16 0 16 0 16 0 0.153191489 5.65106383 2.57021277 26.6042553 16 34.0425532 16 34.0425532 16 34.0425532 29.4297872 26.6042553 31.8468085 5.65106383"></polygon>
                        <polygon id="angular-path" fill="#C3002F" points="16 0 16 3.7787234 16 3.76170213 16 21.0042553 16 21.0042553 16 34.0425532 16 34.0425532 29.4297872 26.6042553 31.8468085 5.65106383"></polygon>
                        <path d="M16,3.76170213 L6.09361702,25.9744681 L6.09361702,25.9744681 L9.78723404,25.9744681 L9.78723404,25.9744681 L11.7787234,21.0042553 L20.187234,21.0042553 L22.1787234,25.9744681 L22.1787234,25.9744681 L25.8723404,25.9744681 L25.8723404,25.9744681 L16,3.76170213 L16,3.76170213 L16,3.76170213 L16,3.76170213 L16,3.76170213 Z M18.893617,17.9404255 L13.106383,17.9404255 L16,10.9787234 L18.893617,17.9404255 Z" id="angular-shape" fill="#FFFFFF"></path>
                    </g>
                </g>
                <g id="react" transform="translate(150.000000, 0.000000)">
                    <circle id="circle" stroke="#61DAFB" stroke-width="2" opacity="0.2" cx="32" cy="32" r="31"></circle>
                    <g id="react-logo" transform="translate(16.000000, 18.000000)" fill="#61DAFB" fill-rule="nonzero">
                        <path d="M31.9544715,14.2113821 C31.9544715,12.097561 29.3073171,10.0943089 25.2487805,8.85203252 C26.1853659,4.71544715 25.7691057,1.42439024 23.9349593,0.370731707 C23.5121951,0.123577236 23.0178862,0.00650406504 22.4780488,0.00650406504 L22.4780488,1.45691057 C22.7772358,1.45691057 23.0178862,1.51544715 23.2195122,1.62601626 C24.104065,2.13333333 24.4878049,4.06504065 24.1886179,6.5495935 C24.1170732,7.16097561 24,7.80487805 23.8569106,8.46178862 C22.5821138,8.1495935 21.1902439,7.90894309 19.7268293,7.75284553 C18.8487805,6.5495935 17.9382114,5.45691057 17.0211382,4.50081301 C19.1414634,2.5300813 21.1317073,1.4504065 22.4845528,1.4504065 L22.4845528,0 C22.4845528,0 22.4845528,0 22.4845528,0 C20.695935,0 18.3544715,1.27479675 15.9869919,3.48617886 C13.6195122,1.28780488 11.2780488,0.0260162602 9.48943089,0.0260162602 L9.48943089,1.47642276 C10.8357724,1.47642276 12.8325203,2.5495935 14.9528455,4.50731707 C14.0422764,5.46341463 13.1317073,6.5495935 12.2666667,7.75284553 C10.796748,7.90894309 9.40487805,8.1495935 8.1300813,8.46829268 C7.9804878,7.81788618 7.8699187,7.18699187 7.79186992,6.58211382 C7.48617886,4.09756098 7.86341463,2.16585366 8.74146341,1.65203252 C8.93658537,1.53495935 9.1902439,1.48292683 9.48943089,1.48292683 L9.48943089,0.0325203252 C9.48943089,0.0325203252 9.48943089,0.0325203252 9.48943089,0.0325203252 C8.94308943,0.0325203252 8.44878049,0.149593496 8.0195122,0.396747967 C6.19186992,1.4504065 5.78211382,4.73495935 6.72520325,8.85853659 C2.6796748,10.1073171 0.0455284553,12.104065 0.0455284553,14.2113821 C0.0455284553,16.3252033 2.69268293,18.3284553 6.75121951,19.5707317 C5.81463415,23.7073171 6.23089431,26.998374 8.06504065,28.0520325 C8.48780488,28.299187 8.98211382,28.4162602 9.52845528,28.4162602 C11.3170732,28.4162602 13.6585366,27.1414634 16.0260163,24.9300813 C18.3934959,27.1284553 20.7349593,28.3902439 22.5235772,28.3902439 C23.0699187,28.3902439 23.5642276,28.2731707 23.9934959,28.0260163 C25.8211382,26.9723577 26.2308943,23.6878049 25.2878049,19.5642276 C29.3203252,18.3219512 31.9544715,16.3186992 31.9544715,14.2113821 Z M23.4861789,9.87317073 C23.2455285,10.7121951 22.9463415,11.5772358 22.6081301,12.4422764 C22.3414634,11.9219512 22.0617886,11.401626 21.7560976,10.8813008 C21.4569106,10.3609756 21.1382114,9.85365854 20.8195122,9.35934959 C21.7430894,9.49593496 22.6341463,9.66504065 23.4861789,9.87317073 Z M20.5073171,16.8 C20,17.6780488 19.4796748,18.5105691 18.9398374,19.2845528 C17.9707317,19.3691057 16.9886179,19.4146341 16,19.4146341 C15.0178862,19.4146341 14.0357724,19.3691057 13.0731707,19.2910569 C12.5333333,18.5170732 12.0065041,17.6910569 11.499187,16.8195122 C11.004878,15.9674797 10.5560976,15.102439 10.1463415,14.2308943 C10.5495935,13.3593496 11.004878,12.4878049 11.4926829,11.6357724 C12,10.7577236 12.5203252,9.92520325 13.0601626,9.15121951 C14.0292683,9.06666667 15.0113821,9.02113821 16,9.02113821 C16.9821138,9.02113821 17.9642276,9.06666667 18.9268293,9.14471545 C19.4666667,9.91869919 19.9934959,10.7447154 20.500813,11.6162602 C20.995122,12.4682927 21.4439024,13.3333333 21.8536585,14.204878 C21.4439024,15.0764228 20.995122,15.9479675 20.5073171,16.8 Z M22.6081301,15.9544715 C22.9593496,16.8260163 23.2585366,17.697561 23.5056911,18.5430894 C22.6536585,18.7512195 21.7560976,18.9268293 20.8260163,19.0634146 C21.1447154,18.5626016 21.4634146,18.0487805 21.7626016,17.5219512 C22.0617886,17.001626 22.3414634,16.4747967 22.6081301,15.9544715 Z M16.0130081,22.8943089 C15.4081301,22.2699187 14.803252,21.5739837 14.204878,20.8130081 C14.7902439,20.8390244 15.3886179,20.8585366 15.9934959,20.8585366 C16.604878,20.8585366 17.2097561,20.8455285 17.801626,20.8130081 C17.2162602,21.5739837 16.6113821,22.2699187 16.0130081,22.8943089 Z M11.1739837,19.0634146 C10.2504065,18.9268293 9.35934959,18.7577236 8.50731707,18.5495935 C8.74796748,17.7105691 9.04715447,16.8455285 9.38536585,15.9804878 C9.65203252,16.500813 9.93170732,17.0211382 10.2373984,17.5414634 C10.5430894,18.0617886 10.8552846,18.5691057 11.1739837,19.0634146 Z M15.9804878,5.52845528 C16.5853659,6.15284553 17.1902439,6.84878049 17.7886179,7.6097561 C17.203252,7.58373984 16.604878,7.56422764 16,7.56422764 C15.3886179,7.56422764 14.7837398,7.57723577 14.1918699,7.6097561 C14.7772358,6.84878049 15.3821138,6.15284553 15.9804878,5.52845528 Z M11.1674797,9.35934959 C10.8487805,9.8601626 10.5300813,10.3739837 10.2308943,10.900813 C9.93170732,11.4211382 9.65203252,11.9414634 9.38536585,12.4617886 C9.03414634,11.5902439 8.73495935,10.7186992 8.48780488,9.87317073 C9.3398374,9.67154472 10.2373984,9.49593496 11.1674797,9.35934959 Z M5.28130081,17.502439 C2.97886179,16.5203252 1.48943089,15.2325203 1.48943089,14.2113821 C1.48943089,13.1902439 2.97886179,11.895935 5.28130081,10.9203252 C5.84065041,10.6796748 6.45203252,10.4650407 7.08292683,10.2634146 C7.45365854,11.5382114 7.94146341,12.8650407 8.54634146,14.2243902 C7.94796748,15.5772358 7.46666667,16.897561 7.10243902,18.1658537 C6.45853659,17.9642276 5.84715447,17.7430894 5.28130081,17.502439 Z M8.7804878,26.796748 C7.89593496,26.2894309 7.51219512,24.3577236 7.81138211,21.8731707 C7.88292683,21.2617886 8,20.6178862 8.14308943,19.9609756 C9.41788618,20.2731707 10.8097561,20.5138211 12.2731707,20.6699187 C13.1512195,21.8731707 14.0617886,22.9658537 14.9788618,23.9219512 C12.8585366,25.8926829 10.8682927,26.9723577 9.51544715,26.9723577 C9.22276423,26.9658537 8.97560976,26.9073171 8.7804878,26.796748 Z M24.2081301,21.8406504 C24.5138211,24.3252033 24.1365854,26.2569106 23.2585366,26.7707317 C23.0634146,26.8878049 22.8097561,26.9398374 22.5105691,26.9398374 C21.1642276,26.9398374 19.1674797,25.8666667 17.0471545,23.9089431 C17.9577236,22.9528455 18.8682927,21.8666667 19.7333333,20.6634146 C21.203252,20.5073171 22.595122,20.2666667 23.8699187,19.9479675 C24.0195122,20.604878 24.1365854,21.2357724 24.2081301,21.8406504 Z M26.7121951,17.502439 C26.1528455,17.7430894 25.5414634,17.9577236 24.9105691,18.1593496 C24.5398374,16.8845528 24.0520325,15.5577236 23.4471545,14.198374 C24.0455285,12.8455285 24.5268293,11.5252033 24.8910569,10.2569106 C25.5349593,10.4585366 26.1463415,10.6796748 26.7186992,10.9203252 C29.0211382,11.902439 30.5105691,13.1902439 30.5105691,14.2113821 C30.504065,15.2325203 29.0146341,16.5268293 26.7121951,17.502439 Z" id="react"></path>
                        <circle id="react-oval" cx="15.9934959" cy="14.2113821" r="2.97235772"></circle>
                    </g>
                </g>
                <g id="jquery" transform="translate(150.000000, 300.000000)">
                    <circle id="circle" stroke="#0769AD" stroke-width="2" opacity="0.25" cx="32" cy="32" r="31"></circle>
                    <g id="jquery-logo" transform="translate(16.000000, 17.000000)" fill="#0769AD" fill-rule="nonzero">
                        <path d="M2.02314811,7.01538462 C-0.807621124,11.0153846 -0.438390355,16.3076923 1.7154558,20.5538462 C1.7154558,20.6769231 1.77699426,20.8 1.83853272,20.9230769 C1.83853272,20.9846154 1.90007118,21.0461538 1.96160965,21.1076923 C1.96160965,21.1692308 2.02314811,21.1692308 2.02314811,21.2307692 C2.08468657,21.2923077 2.08468657,21.3538462 2.14622503,21.4153846 C2.20776349,21.5384615 2.26930195,21.6615385 2.33084041,21.7846154 C2.39237888,21.8461538 2.39237888,21.9076923 2.45391734,21.9692308 C2.5154558,22.0923077 2.63853272,22.2153846 2.70007118,22.3384615 C2.76160965,22.4 2.76160965,22.4615385 2.82314811,22.5230769 C2.94622503,22.7076923 3.06930195,22.8307692 3.19237888,23.0153846 C3.19237888,23.0153846 3.19237888,23.0153846 3.19237888,23.0153846 C3.19237888,23.0153846 3.25391734,23.0769231 3.25391734,23.0769231 C3.37699426,23.2 3.43853272,23.3846154 3.56160965,23.5076923 C3.62314811,23.5692308 3.62314811,23.6307692 3.68468657,23.6307692 C3.80776349,23.7538462 3.86930195,23.8769231 3.99237888,24 C4.05391734,24.0615385 4.05391734,24.0615385 4.1154558,24.1230769 C4.23853272,24.3076923 4.36160965,24.4307692 4.54622503,24.5538462 C4.54622503,24.5538462 4.54622503,24.5538462 4.54622503,24.5538462 C4.54622503,24.5538462 4.54622503,24.5538462 4.54622503,24.5538462 C4.66930195,24.6769231 4.79237888,24.8615385 4.97699426,24.9846154 C5.03853272,25.0461538 5.03853272,25.0461538 5.10007118,25.1076923 C5.22314811,25.2307692 5.28468657,25.2923077 5.40776349,25.4153846 C5.46930195,25.4769231 5.46930195,25.4769231 5.53084041,25.5384615 C5.65391734,25.6615385 5.83853272,25.7846154 5.96160965,25.9692308 C5.96160965,25.9692308 5.96160965,25.9692308 5.96160965,25.9692308 C5.96160965,25.9692308 6.02314811,26.0307692 6.02314811,26.0307692 C6.14622503,26.1538462 6.26930195,26.2769231 6.45391734,26.4 C6.5154558,26.4615385 6.57699426,26.4615385 6.63853272,26.5230769 C6.76160965,26.5846154 6.88468657,26.7076923 7.00776349,26.7692308 C7.06930195,26.8307692 7.13084041,26.8307692 7.19237888,26.8923077 C7.3154558,27.0153846 7.43853272,27.0769231 7.56160965,27.1384615 C7.62314811,27.2 7.62314811,27.2 7.68468657,27.2615385 C7.68468657,27.2615385 7.68468657,27.2615385 7.74622503,27.2615385 C7.86930195,27.3230769 7.99237888,27.4461538 8.1154558,27.5076923 C8.17699426,27.5692308 8.23853272,27.5692308 8.30007118,27.6307692 C8.48468657,27.7538462 8.66930195,27.8769231 8.85391734,28 C8.9154558,28 8.97699426,28.0615385 9.03853272,28.0615385 C9.16160965,28.1230769 9.34622503,28.2461538 9.46930195,28.3076923 C9.53084041,28.3692308 9.65391734,28.3692308 9.7154558,28.4307692 C9.83853272,28.4923077 9.90007118,28.5538462 10.0231481,28.6153846 C10.0231481,28.6153846 10.0846866,28.6153846 10.0846866,28.6769231 C10.146225,28.6769231 10.146225,28.7384615 10.2077635,28.7384615 C10.3923789,28.8 10.5154558,28.9230769 10.7000712,28.9846154 C10.7616096,28.9846154 10.7616096,28.9846154 10.8231481,29.0461538 C11.0077635,29.1076923 11.1923789,29.2307692 11.3769943,29.2923077 C11.4385327,29.2923077 11.4385327,29.3538462 11.5000712,29.3538462 C11.6846866,29.4153846 11.869302,29.4769231 12.0539173,29.5384615 C12.0539173,29.5384615 12.1154558,29.5384615 12.1154558,29.5384615 C12.3000712,29.6 12.546225,29.6615385 12.7308404,29.7230769 C12.7923789,29.7230769 12.8539173,29.7846154 12.8539173,29.7846154 C13.0385327,29.8461538 13.2846866,29.9076923 13.469302,29.9692308 C27.0077635,32.4307692 30.946225,21.8461538 30.946225,21.8461538 C27.6231481,26.1538462 21.7769943,27.2615385 16.1769943,26.0307692 C15.9923789,25.9692308 15.746225,25.9076923 15.5616096,25.8461538 C15.5000712,25.8461538 15.4385327,25.8461538 15.4385327,25.7846154 C15.2539173,25.7230769 15.0077635,25.6615385 14.8231481,25.6 C14.8231481,25.6 14.7616096,25.6 14.7616096,25.5384615 C14.5769943,25.4769231 14.3923789,25.4153846 14.2077635,25.3538462 C14.146225,25.3538462 14.0846866,25.2923077 14.0846866,25.2923077 C13.9000712,25.2307692 13.7154558,25.1076923 13.5308404,25.0461538 C13.469302,25.0461538 13.469302,24.9846154 13.4077635,24.9846154 C13.2231481,24.9230769 13.1000712,24.8615385 12.9154558,24.7384615 C12.8539173,24.7384615 12.8539173,24.6769231 12.7923789,24.6769231 C12.669302,24.6153846 12.546225,24.5538462 12.4231481,24.4923077 C12.3616096,24.4307692 12.2385327,24.4307692 12.1769943,24.3692308 C12.0539173,24.3076923 11.869302,24.1846154 11.746225,24.1230769 C11.6846866,24.0615385 11.6231481,24.0615385 11.6231481,24.0615385 C11.4385327,23.9384615 11.2539173,23.8153846 11.069302,23.6923077 C11.0077635,23.6307692 10.946225,23.6307692 10.8846866,23.5692308 C10.7616096,23.5076923 10.5769943,23.3846154 10.4539173,23.3230769 C10.3923789,23.2615385 10.3923789,23.2615385 10.3308404,23.2 C10.2077635,23.1384615 10.0846866,23.0153846 9.96160965,22.8923077 C9.90007118,22.8307692 9.83853272,22.8307692 9.77699426,22.7692308 C9.65391734,22.7076923 9.53084041,22.5846154 9.40776349,22.5230769 C9.34622503,22.4615385 9.28468657,22.4615385 9.22314811,22.4 C9.10007118,22.2769231 8.9154558,22.1538462 8.79237888,22.0307692 C8.79237888,22.0307692 8.73084041,22.0307692 8.73084041,21.9692308 C8.60776349,21.8461538 8.42314811,21.6615385 8.30007118,21.5384615 C8.23853272,21.4769231 8.23853272,21.4769231 8.17699426,21.4153846 C8.05391734,21.2923077 7.93084041,21.2307692 7.86930195,21.1076923 C7.80776349,21.0461538 7.80776349,21.0461538 7.74622503,20.9846154 C7.62314811,20.8615385 7.50007118,20.6769231 7.3154558,20.5538462 C7.3154558,20.5538462 7.3154558,20.5538462 7.3154558,20.5538462 C7.19237888,20.4307692 7.06930195,20.2461538 6.88468657,20.0615385 C6.82314811,20 6.82314811,20 6.76160965,19.9384615 C6.63853272,19.8153846 6.57699426,19.6923077 6.45391734,19.5692308 C6.39237888,19.5076923 6.39237888,19.5076923 6.33084041,19.4461538 C6.14622503,19.3846154 6.02314811,19.2 5.90007118,19.0769231 C2.82314811,14.8923077 1.7154558,9.04615385 4.17699426,4.30769231" id="Path"></path>
                        <path d="M10.7000712,3.63076923 C8.66930195,6.58461538 8.79237888,10.4615385 10.3923789,13.5384615 C10.6385327,14.0307692 10.946225,14.5846154 11.3154558,15.0153846 C11.6231481,15.4461538 11.9308404,15.9384615 12.3616096,16.3076923 C12.4846866,16.4923077 12.669302,16.6153846 12.7923789,16.8 C12.8539173,16.8615385 12.8539173,16.8615385 12.9154558,16.9230769 C13.0385327,17.0461538 13.2231481,17.2307692 13.4077635,17.3538462 C13.4077635,17.3538462 13.4077635,17.3538462 13.4077635,17.3538462 C13.4077635,17.3538462 13.4077635,17.3538462 13.4077635,17.3538462 C13.5923789,17.5384615 13.7769943,17.6615385 13.9616096,17.7846154 C14.0231481,17.8461538 14.0231481,17.8461538 14.0846866,17.9076923 C14.269302,18.0307692 14.4539173,18.2153846 14.6385327,18.3384615 C14.6385327,18.3384615 14.6385327,18.3384615 14.6385327,18.3384615 C14.7000712,18.4 14.8231481,18.4615385 14.8846866,18.5230769 C14.946225,18.5230769 14.946225,18.5846154 15.0077635,18.5846154 C15.1308404,18.6461538 15.3154558,18.7692308 15.4385327,18.8307692 C15.4385327,18.8307692 15.5000712,18.8307692 15.5000712,18.8923077 C15.6231481,18.9538462 15.746225,19.0153846 15.869302,19.0769231 C15.9308404,19.0769231 15.9308404,19.1384615 15.9923789,19.1384615 C16.0539173,19.2 16.1769943,19.2 16.2385327,19.2615385 C16.2385327,19.2615385 16.2385327,19.2615385 16.3000712,19.2615385 C16.4846866,19.3230769 16.669302,19.4461538 16.8539173,19.5076923 C16.9154558,19.5076923 16.9154558,19.5692308 16.9769943,19.5692308 C17.1000712,19.6307692 17.2846866,19.6923077 17.4077635,19.7538462 C17.469302,19.7538462 17.5308404,19.8153846 17.5923789,19.8153846 C17.7154558,19.8769231 17.8385327,19.9384615 18.0231481,19.9384615 C18.0846866,19.9384615 18.146225,20 18.2077635,20 C18.3923789,20.0615385 18.5769943,20.1230769 18.8231481,20.1846154 C29.2846866,21.9076923 31.6846866,13.8461538 31.6846866,13.8461538 C29.5308404,16.9846154 25.2846866,18.4615385 20.7923789,17.2923077 C20.6077635,17.2307692 20.4231481,17.1692308 20.1769943,17.1076923 C20.1154558,17.1076923 20.0539173,17.0461538 19.9923789,17.0461538 C19.869302,16.9846154 19.6846866,16.9846154 19.5616096,16.9230769 C19.5000712,16.9230769 19.4385327,16.8615385 19.3769943,16.8615385 C19.2539173,16.8 19.069302,16.7384615 18.946225,16.6769231 C18.8846866,16.6769231 18.8846866,16.6153846 18.8231481,16.6153846 C18.6385327,16.5538462 18.4539173,16.4307692 18.269302,16.3692308 C18.2077635,16.3076923 18.0846866,16.2461538 18.0231481,16.2461538 C17.9616096,16.2461538 17.9000712,16.1846154 17.8385327,16.1846154 C17.7154558,16.1230769 17.5923789,16.0615385 17.469302,16 C17.469302,16 17.4077635,16 17.4077635,15.9384615 C17.2846866,15.8769231 17.1000712,15.7538462 16.9769943,15.6923077 C16.9154558,15.6923077 16.9154558,15.6307692 16.8539173,15.6307692 C16.7923789,15.5692308 16.669302,15.5076923 16.6077635,15.4461538 C16.4231481,15.3230769 16.2385327,15.2 16.0539173,15.0153846 C15.9923789,14.9538462 15.9923789,14.9538462 15.9308404,14.8923077 C13.9616096,13.3538462 12.4231481,11.2 11.6846866,8.8 C10.8846866,6.27692308 11.069302,3.50769231 12.4231481,1.23076923" id="Path"></path>
                        <path d="M18.0231481,1.10769231 C16.8539173,2.89230769 16.7308404,5.04615385 17.5308404,7.01538462 C18.3923789,9.10769231 20.1769943,10.7076923 22.269302,11.4461538 C22.3308404,11.5076923 22.4539173,11.5076923 22.5154558,11.5076923 C22.5769943,11.5076923 22.5769943,11.5076923 22.6385327,11.5692308 C22.7616096,11.6307692 22.8846866,11.6307692 23.0077635,11.6923077 C28.7923789,12.8 30.3308404,8.73846154 30.7616096,8.12307692 C29.4077635,10.0923077 27.069302,10.5846154 24.2385327,9.90769231 C23.9923789,9.84615385 23.746225,9.78461538 23.5616096,9.72307692 C23.3154558,9.6 23.0077635,9.53846154 22.7616096,9.41538462 C22.269302,9.16923077 21.7769943,8.86153846 21.346225,8.55384615 C18.8231481,6.64615385 17.2231481,2.95384615 18.8846866,-4.37257068e-15" id="Path"></path>
                    </g>
                </g>
                <g id="graphql" transform="translate(76.580429, 76.080429) rotate(-45.000000) translate(-76.580429, -76.080429) translate(44.580429, 44.080429)">
                    <circle id="circle" stroke="#CB45A2" stroke-width="2" opacity="0.25" cx="32" cy="32" r="31"></circle>
                    <g id="graphql-logo" transform="translate(32.000000, 31.920000) rotate(45.000000) translate(-32.000000, -31.920000) translate(16.000000, 14.000000)" fill="#CB45A2" fill-rule="nonzero">
                        <polygon id="Rectangle" transform="translate(9.632439, 14.246409) rotate(-149.999272) translate(-9.632439, -14.246409) " points="8.87359841 -0.395554438 10.3912793 -0.395554438 10.3912793 28.8883727 8.87359841 28.8883727"></polygon>
                        <rect id="Rectangle" x="1.35314286" y="24.5211429" width="29.2845714" height="1.51771429"></rect>
                        <polygon id="Rectangle" transform="translate(9.635922, 28.945179) rotate(-149.999272) translate(-9.635922, -28.945179) " points="1.17896549 28.186339 18.0928791 28.186339 18.0928791 29.7040199 1.17896549 29.7040199"></polygon>
                        <polygon id="Rectangle" transform="translate(22.360439, 6.903671) rotate(-149.999272) translate(-22.360439, -6.903671) " points="13.9034821 6.14483041 30.8173957 6.14483041 30.8173957 7.6625113 13.9034821 7.6625113"></polygon>
                        <polygon id="Rectangle" transform="translate(9.639982, 6.897893) rotate(-120.000728) translate(-9.639982, -6.897893) " points="8.88114127 -1.55906423 10.3988222 -1.55906423 10.3988222 15.3548494 8.88114127 15.3548494"></polygon>
                        <polygon id="Rectangle" transform="translate(22.370853, 14.246683) rotate(-120.000728) translate(-22.370853, -14.246683) " points="7.72888899 13.487843 37.0128162 13.487843 37.0128162 15.0055239 7.72888899 15.0055239"></polygon>
                        <rect id="Rectangle" x="2.51428571" y="9.46285714" width="1.51771429" height="16.9142857"></rect>
                        <rect id="Rectangle" x="27.968" y="9.46285714" width="1.51771429" height="16.9142857"></rect>
                        <polygon id="Rectangle" transform="translate(22.360375, 28.936741) rotate(-120.000728) translate(-22.360375, -28.936741) " points="21.6975323 21.5814738 23.0232174 21.5814738 23.0232174 36.2920073 21.6975323 36.2920073"></polygon>
                        <path d="M31.4971429,26.8708571 C30.6194286,28.3977143 28.6628571,28.9188571 27.136,28.0411429 C25.6091429,27.1634286 25.088,25.2068571 25.9657143,23.68 C26.8434286,22.1531429 28.8,21.632 30.3268571,22.5097143 C31.8628571,23.3965714 32.384,25.344 31.4971429,26.8708571" id="Path"></path>
                        <path d="M6.02514286,12.16 C5.14742857,13.6868571 3.19085714,14.208 1.664,13.3302857 C0.137142857,12.4525714 -0.384,10.496 0.493714286,8.96914286 C1.37142857,7.44228571 3.328,6.92114286 4.85485714,7.79885714 C6.38171429,8.68571429 6.90285714,10.6331429 6.02514286,12.16" id="Path"></path>
                        <path d="M0.502857143,26.8708571 C-0.374857143,25.344 0.146285714,23.3965714 1.67314286,22.5097143 C3.2,21.632 5.14742857,22.1531429 6.03428571,23.68 C6.912,25.2068571 6.39085714,27.1542857 4.864,28.0411429 C3.328,28.9188571 1.38057143,28.3977143 0.502857143,26.8708571" id="Path"></path>
                        <path d="M25.9748571,12.16 C25.0971429,10.6331429 25.6182857,8.68571429 27.1451429,7.79885714 C28.672,6.92114286 30.6194286,7.44228571 31.5062857,8.96914286 C32.384,10.496 31.8628571,12.4434286 30.336,13.3302857 C28.8091429,14.208 26.8525714,13.6868571 25.9748571,12.16" id="Path"></path>
                        <path d="M16,35.8217143 C14.2354286,35.8217143 12.8091429,34.3954286 12.8091429,32.6308571 C12.8091429,30.8662857 14.2354286,29.44 16,29.44 C17.7645714,29.44 19.1908571,30.8662857 19.1908571,32.6308571 C19.1908571,34.3862857 17.7645714,35.8217143 16,35.8217143" id="Path"></path>
                        <path d="M16,6.4 C14.2354286,6.4 12.8091429,4.97371429 12.8091429,3.20914286 C12.8091429,1.44457143 14.2354286,0.0182857143 16,0.0182857143 C17.7645714,0.0182857143 19.1908571,1.44457143 19.1908571,3.20914286 C19.1908571,4.97371429 17.7645714,6.4 16,6.4" id="Path"></path>
                    </g>
                </g>
                <g id="jest" transform="translate(300.000000, 150.000000)">
                    <circle id="circle" stroke="#894558" stroke-width="2" opacity="0.25" cx="32" cy="32" r="31"></circle>
                    <g id="jest-logo" transform="translate(16.000000, 14.000000)" fill-rule="nonzero">
                        <path d="M29.9965696,17.400375 C29.9965696,15.583625 28.5238196,14.110875 26.7070696,14.110875 C26.5901946,14.110875 26.4749446,14.117125 26.3613196,14.129 L30.8794446,0.803375 L11.6789446,0.803375 L16.1906946,14.1175 C16.1245696,14.1135 16.0580696,14.110875 15.9908196,14.110875 C14.1740696,14.110875 12.7013196,15.583625 12.7013196,17.400375 C12.7013196,18.868875 13.6636946,20.112125 14.9920696,20.535125 C14.2904446,21.750375 13.4076946,22.844875 12.4054446,23.790375 C11.0425696,25.076125 9.48281962,26.051 7.79594462,26.65175 C5.78744463,25.62 4.83894462,23.32525 5.69481963,21.313375 C5.79144462,21.08625 5.89006962,20.855875 5.98444462,20.626625 C7.43944462,20.287 8.52369462,18.9825 8.52369462,17.424 C8.52369462,15.60725 7.05094462,14.1345 5.23419462,14.1345 C3.41731962,14.1345 1.94456962,15.60725 1.94456962,17.424 C1.94456962,18.538125 2.49894463,19.522 3.34619462,20.117125 C2.53194462,21.971 1.33519462,23.911 0.962319626,26.1595 C0.515444626,28.854375 0.960944626,31.714875 3.29156962,33.33025 C8.71956962,37.09225 14.6115696,30.998125 20.8239446,29.466125 C23.0753196,28.910875 25.5466946,29.000375 27.5303196,27.8515 C29.0199446,26.98875 30.0019446,25.559 30.2806946,23.95375 C30.5559446,22.368 30.1545696,20.789125 29.2315696,19.508875 C29.7089446,18.937875 29.9965696,18.202875 29.9965696,17.400375 L29.9965696,17.400375 Z M19.2800696,17.412 C19.2800696,17.408125 19.2804446,17.40425 19.2804446,17.400375 C19.2804446,16.207375 18.6451946,15.162625 17.6946946,14.586 L21.2856946,7.324625 L24.8829446,14.663 C23.9995696,15.25275 23.4174446,16.2585 23.4174446,17.400375 C23.4174446,17.424375 23.4188196,17.448 23.4193196,17.471875 L19.2800696,17.412 L19.2800696,17.412 Z" id="jest" fill="#894558"></path>
                        <path d="M30.7998795,17.400375 C30.7998795,15.40225 29.3602545,13.735 27.4638795,13.378875 L32,0 L10.5582544,0 L15.1012545,13.406 C13.2708795,13.813375 11.8978794,15.449125 11.8978794,17.400375 C11.8978794,18.86575 12.6722545,20.152875 13.8328795,20.876125 C13.2746295,21.70775 12.6126295,22.490375 11.8540044,23.206 C10.6510044,24.341 9.31062944,25.20175 7.86562944,25.768 C6.41025444,24.85375 5.79500444,23.12975 6.43400444,21.62775 L6.48400444,21.51025 C6.51525444,21.43675 6.54662944,21.363 6.57787944,21.28925 C8.17637944,20.731875 9.32700444,19.21025 9.32700444,17.424 C9.32700444,15.167125 7.49087944,13.331125 5.23400444,13.331125 C2.97712944,13.331125 1.14112944,15.167125 1.14112944,17.424 C1.14112944,18.563125 1.60925444,19.594625 2.36275444,20.337375 C2.22612944,20.628625 2.08250444,20.924625 1.93487944,21.227875 C1.24587944,22.643 0.465004441,24.247 0.169629441,26.028125 C-0.416995559,29.5655 0.529129441,32.39325 2.83375444,33.9905 C4.23225444,34.95975 5.65237944,35.340875 7.08150444,35.340875 C9.77262944,35.340875 12.4947544,33.988875 15.1572545,32.666375 C17.0748795,31.714 19.0576295,30.729125 21.0162545,30.246125 C21.7450045,30.066375 22.4948795,29.95825 23.2887545,29.84375 C24.8630045,29.616625 26.4910045,29.381875 27.9330045,28.54675 C29.6043795,27.578625 30.7486295,25.954625 31.0721295,24.09125 C31.3498795,22.491625 31.0155045,20.889625 30.2002545,19.530875 C30.5803795,18.909875 30.7998795,18.180375 30.7998795,17.400375 L30.7998795,17.400375 Z M29.1931295,17.400375 C29.1931295,18.77125 28.0778795,19.886625 26.7068795,19.886625 C25.3361295,19.886625 24.2207545,18.77125 24.2207545,17.400375 C24.2207545,16.0295 25.3361295,14.91425 26.7068795,14.91425 C28.0778795,14.91425 29.1931295,16.0295 29.1931295,17.400375 L29.1931295,17.400375 Z M29.7586295,1.60675 L25.7530045,13.420875 C25.5793795,13.4625 25.4101295,13.515 25.2457545,13.578125 L21.2887545,5.505875 L17.3202545,13.530375 C17.1487545,13.47125 16.9722545,13.422625 16.7912545,13.386625 L12.7993795,1.60675 L29.7586295,1.60675 L29.7586295,1.60675 Z M15.9907545,14.91425 C17.3616295,14.91425 18.4768795,16.0295 18.4768795,17.400375 C18.4768795,18.77125 17.3616295,19.886625 15.9907545,19.886625 C14.6200045,19.886625 13.5046295,18.77125 13.5046295,17.400375 C13.5046295,16.0295 14.6200045,14.91425 15.9907545,14.91425 L15.9907545,14.91425 Z M5.23400444,14.937875 C6.60500444,14.937875 7.72025444,16.053125 7.72025444,17.424 C7.72025444,18.794875 6.60500444,19.91025 5.23400444,19.91025 C3.86325444,19.91025 2.74787944,18.794875 2.74787944,17.424 C2.74787944,16.053125 3.86325444,14.937875 5.23400444,14.937875 L5.23400444,14.937875 Z M29.4890045,23.816375 C29.2471295,25.209875 28.3863795,26.42725 27.1276295,27.15625 C25.9542545,27.835875 24.5481295,28.03875 23.0593795,28.253375 C22.2618795,28.368375 21.4371295,28.487375 20.6315045,28.686125 C18.5012545,29.211375 16.4378795,30.23625 14.4425045,31.227375 C10.4493794,33.21075 7.00075444,34.9235 3.74912944,32.669875 C1.36725444,31.019125 1.47725444,27.96475 1.75475444,26.291 C2.01187944,24.740375 2.70712944,23.31225 3.37950444,21.931125 C3.49587944,21.692125 3.60887944,21.458 3.71975444,21.225375 C4.05325444,21.35875 4.40787944,21.449625 4.77750444,21.490875 C4.09312944,23.74975 5.16950444,26.20575 7.42862944,27.366375 L7.73775444,27.52525 L8.06525444,27.408625 C9.85125444,26.772625 11.4968794,25.751875 12.9566295,24.37475 C13.9002545,23.484625 14.7111295,22.49975 15.3778795,21.447375 C15.5778795,21.4775 15.7825045,21.493375 15.9907545,21.493375 C18.2476295,21.493375 20.0837545,19.657375 20.0837545,17.400375 C20.0837545,16.186625 19.5521295,15.095125 18.7101295,14.344875 L21.2823795,9.143375 L23.8807545,14.444 C23.1011295,15.18975 22.6140045,16.238875 22.6140045,17.400375 C22.6140045,19.657375 24.4500045,21.493375 26.7068795,21.493375 C27.5740045,21.493375 28.3783795,21.221625 29.0408795,20.759875 C29.5008795,21.7015 29.6722545,22.761 29.4890045,23.816375 L29.4890045,23.816375 Z" id="jest-outline" fill="#FFFFFF"></path>
                    </g>
                </g>
                <g id="gatsby" transform="translate(289.419571, 76.080429) rotate(45.000000) translate(-289.419571, -76.080429) translate(257.419571, 44.080429)">
                    <circle id="circle" stroke="#663399" stroke-width="2" opacity="0.25" cx="32" cy="32" r="31"></circle>
                    <g id="gatsby-logo" transform="translate(32.000000, 32.000000) rotate(-45.000000) translate(-32.000000, -32.000000) translate(18.000000, 18.000000)" fill-rule="nonzero">
                        <circle id="gatsby-circle" fill="#663399" cx="14" cy="14" r="14"></circle>
                        <path d="M6.2,21.8 C4.1,19.7 3,16.9 3,14.2 L13.9,25 C11.1,24.9 8.3,23.9 6.2,21.8 Z M16.4,24.7 L3.3,11.6 C4.4,6.7 8.8,3 14,3 C17.7,3 20.9,4.8 22.9,7.5 L21.4,8.8 C19.7,6.5 17,5 14,5 C10.1,5 6.8,7.5 5.5,11 L17,22.5 C19.9,21.5 22.1,19 22.8,16 L18,16 L18,14 L25,14 C25,19.2 21.3,23.6 16.4,24.7 Z" id="gatsby-g" fill="#FFFFFF"></path>
                    </g>
                </g>
                <g id="cypress" transform="translate(0.000000, 150.000000)">
                    <circle id="circle" stroke="#000000" stroke-width="2" opacity="0.25" cx="32" cy="32" r="31"></circle>
                    <path d="M32,48 C40.836556,48 48,40.836556 48,32 C48,23.163444 40.836556,16 32,16 C23.163444,16 16,23.163444 16,32 C16,40.836556 23.163444,48 32,48 Z M29.5638913,25.1594662 L29.864248,25.2993534 C31.0199916,25.8467631 31.2141265,26.0699095 30.9431112,26.603156 L30.8951639,26.6924468 C30.2496984,27.9026947 29.4832081,28.3867938 28.8377426,27.9833778 C28.5150099,27.7413283 27.5468116,27.5799619 26.7399797,27.5799619 C24.5940477,27.5799619 23.9356772,28.6760598 24.0707507,32.0636802 L24.0994019,32.6400717 C24.2160321,34.7249585 24.3775759,35.0867258 25.2876823,35.7693056 L25.4522018,35.8903714 C26.2977577,36.4985253 26.6640426,36.5096925 28.0309107,36.0920383 L28.4422205,35.9752414 C29.506818,35.6825537 29.7580913,35.724804 30.3003208,36.3550568 L30.6219822,36.7409186 C31.4905307,37.7979775 31.3691777,37.9112891 29.8866241,38.6335588 C28.1519355,39.4403907 24.7229,39.4807323 23.1899194,38.6739004 C20.5273742,37.3022862 19.1154184,33.5505179 19.9625918,30.0004576 C20.5677158,27.4589371 21.6569388,26.0873229 23.7547017,25.1191246 C25.8524646,24.1509264 27.3854452,24.191268 29.5638913,25.1594662 Z M35.5344473,24.7560503 L36.9060615,30.4038735 L37.1702058,31.4617121 C37.8243371,34.0497787 38.367772,35.9616005 38.4390421,35.8903304 L38.4514066,35.8662696 C38.5634287,35.6141025 39.0660177,33.8228236 39.5686068,31.7351461 L40.4686258,28.1482046 C41.4384468,24.3464414 41.532544,24.7210557 43.2013731,24.75402 L43.7360081,24.7579909 C45.1042556,24.775192 45.4066118,24.9116536 45.2567716,25.3611742 L45.2392644,25.3993698 C45.0282615,25.887897 43.9689438,29.1073567 42.7959343,32.743686 L42.1028657,34.895426 C40.1858331,40.7837658 39.6412216,41.7640665 38.1163094,43.0711342 C36.8253783,44.1603572 33.9207835,45.1285555 33.275318,44.7251396 C33.0332684,44.6041148 32.8719021,43.9586493 32.8719021,43.3131837 C32.8719021,42.4660103 33.1139516,42.1029359 33.7997587,41.9012279 C34.2838579,41.7398616 35.0906898,41.3767872 35.5344473,41.0540545 L36.4219624,40.5296137 L33.9332155,32.6797506 C32.6903769,28.713888 31.6616542,25.3554923 31.6616542,25.1594662 C31.6616542,24.925485 32.4909878,24.7668977 33.4937274,24.7565852 L35.5344473,24.7560503 Z" id="cypress-logo" fill="#000000" fill-rule="nonzero"></path>
                </g>
                <g id="standalone" transform="translate(147.000000, 147.000000)">
                    <rect id="background" fill="#172126" x="17.7099996" y="19.2499995" width="34.6499991" height="32.3399992"></rect>
                    <path d="M53.8999987,10.7799997 C57.3020726,10.7799997 60.0599985,13.5379256 60.0599985,16.9399996 L60.0599985,53.8999987 C60.0599985,57.3020726 57.3020726,60.0599985 53.8999987,60.0599985 L16.9399996,60.0599985 C13.5379256,60.0599985 10.7799997,57.3020726 10.7799997,53.8999987 L10.7799997,16.9399996 C10.7799997,13.5379256 13.5379256,10.7799997 16.9399996,10.7799997 L53.8999987,10.7799997 Z M38.1908263,39.3905063 C38.1409129,39.4944925 38.1149991,39.608364 38.1149991,39.7237092 L38.1149991,46.5162887 C38.1149991,46.9415479 38.4597398,47.2862887 38.884999,47.2862887 C39.0003442,47.2862887 39.1142157,47.2603748 39.218202,47.2104614 L46.2938056,43.8141717 C46.6771866,43.6301488 46.8387983,43.170177 46.6547754,42.786796 C46.5789985,42.6289274 46.4516742,42.5016031 46.2938056,42.4258262 L39.218202,39.0295364 C38.8348209,38.8455135 38.3748492,39.0071252 38.1908263,39.3905063 Z M26.9499993,42.349999 L23.8699994,42.349999 C23.4447402,42.349999 23.0999994,42.6947397 23.0999994,43.1199989 C23.0999994,43.5452582 23.4447402,43.8899989 23.8699994,43.8899989 L26.9499993,43.8899989 C27.3752586,43.8899989 27.7199993,43.5452582 27.7199993,43.1199989 C27.7199993,42.6947397 27.3752586,42.349999 26.9499993,42.349999 Z M34.6499991,42.349999 L31.5699992,42.349999 C31.14474,42.349999 30.7999992,42.6947397 30.7999992,43.1199989 C30.7999992,43.5452582 31.14474,43.8899989 31.5699992,43.8899989 L34.6499991,43.8899989 C35.0752584,43.8899989 35.4199991,43.5452582 35.4199991,43.1199989 C35.4199991,42.6947397 35.0752584,42.349999 34.6499991,42.349999 Z M30.9490332,24.3606601 L30.8517963,24.3995368 L23.7761926,27.7958266 C23.618324,27.8716035 23.4909998,27.9989278 23.4152228,28.1567964 C23.2465352,28.508229 23.3682766,28.9240191 23.6850393,29.1326214 L23.7761926,29.184172 L30.8517963,32.5804618 C30.9557826,32.6303752 31.0696541,32.656289 31.1849992,32.656289 C31.5748202,32.656289 31.8969833,32.3666111 31.94797,31.9907735 L31.9549992,31.8862891 L31.9542177,29.2595317 L46.1999989,29.2599993 C46.6252581,29.2599993 46.9699988,28.9152585 46.9699988,28.4899993 C46.9699988,28.1001783 46.6803209,27.7780153 46.3044833,27.7270285 L46.1999989,27.7199993 L31.9542177,27.7195317 L31.9549992,25.0937095 C31.9549992,24.9783644 31.9290854,24.8644929 31.879172,24.7605066 C31.7104843,24.409074 31.309923,24.2439893 30.9490332,24.3606601 Z" id="Combined-Shape" fill="#FF6A33" transform="translate(35.419999, 35.419999) rotate(-45.000000) translate(-35.419999, -35.419999) "></path>
                </g>
            </g>
        </g>
    </g>
</svg>