<?xml version="1.0" encoding="UTF-8"?>
<svg width="340px" height="376px" viewBox="0 0 340 376" version="1.1" xmlns="http://www.w3.org/2000/svg" xmlns:xlink="http://www.w3.org/1999/xlink">
    <title>teachers-diagram</title>
    <defs>
        <circle id="path-1" cx="32" cy="32" r="32"></circle>
        <circle id="path-3" cx="32" cy="32" r="32"></circle>
        <circle id="path-5" cx="32" cy="32" r="32"></circle>
    </defs>
    <g id="teachers-diagram" stroke="none" stroke-width="1" fill="none" fill-rule="evenodd">
        <g id="student-left" transform="translate(30.000000, 94.000000)">
            <mask id="mask-2" fill="white">
                <use xlink:href="#path-1"></use>
            </mask>
            <circle stroke="#FF9843" stroke-width="2" cx="32" cy="32" r="31"></circle>
            <rect id="left-fill" fill="#FF9843" mask="url(#mask-2)" x="0" y="0" width="64" height="64"></rect>
            <path d="M32.1964286,33.7142857 C34.75875,33.7142857 37.2546429,34.4375 39.225,35.75 C41.4428571,37.2285714 42.8539286,39.3355357 43.3060714,41.84375 C43.41,42.4185714 43.2696429,42.9869643 42.9214286,43.4032143 C42.6011552,43.7871564 42.124946,44.00637 41.625,44 L22.7678571,44 C22.2679997,44.0065021 21.7918059,43.7874922 21.4714286,43.40375 C21.1232143,42.9875 20.9828571,42.4191071 21.0867857,41.8442857 C21.5389286,39.3360714 22.95,37.2291071 25.1678571,35.75 C27.1382143,34.4369643 29.6341071,33.7142857 32.1964286,33.7142857 Z M32.1964286,20 C33.8035714,20 35.2596429,20.6198214 36.3021429,21.7453571 C37.3575,22.8848214 37.8717857,24.4185714 37.7501786,26.0632143 C37.5085714,29.3369643 35.02125,32 32.1964286,32 C29.3716071,32 26.88,29.3364286 26.6421429,26.0621429 C26.5221429,24.4025 27.0332143,22.8655357 28.0821429,21.7346429 C29.1198214,20.6160714 30.5807143,20 32.1964286,20 Z" fill="#8E460B" fill-rule="nonzero"></path>
        </g>
        <g id="student" transform="translate(138.000000, 30.000000)">
            <mask id="mask-4" fill="white">
                <use xlink:href="#path-3"></use>
            </mask>
            <circle stroke="#FF9843" stroke-width="2" cx="32" cy="32" r="31"></circle>
            <rect id="middle-fill" fill="#FF9843" mask="url(#mask-4)" x="0" y="0" width="64" height="64"></rect>
            <path d="M32.1964286,33.7142857 C34.75875,33.7142857 37.2546429,34.4375 39.225,35.75 C41.4428571,37.2285714 42.8539286,39.3355357 43.3060714,41.84375 C43.41,42.4185714 43.2696429,42.9869643 42.9214286,43.4032143 C42.6011552,43.7871564 42.124946,44.00637 41.625,44 L22.7678571,44 C22.2679997,44.0065021 21.7918059,43.7874922 21.4714286,43.40375 C21.1232143,42.9875 20.9828571,42.4191071 21.0867857,41.8442857 C21.5389286,39.3360714 22.95,37.2291071 25.1678571,35.75 C27.1382143,34.4369643 29.6341071,33.7142857 32.1964286,33.7142857 Z M32.1964286,20 C33.8035714,20 35.2596429,20.6198214 36.3021429,21.7453571 C37.3575,22.8848214 37.8717857,24.4185714 37.7501786,26.0632143 C37.5085714,29.3369643 35.02125,32 32.1964286,32 C29.3716071,32 26.88,29.3364286 26.6421429,26.0621429 C26.5221429,24.4025 27.0332143,22.8655357 28.0821429,21.7346429 C29.1198214,20.6160714 30.5807143,20 32.1964286,20 Z" id="student-top" fill="#8E460B" fill-rule="nonzero"></path>
        </g>
        <g id="student-right" transform="translate(246.000000, 94.000000)">
            <mask id="mask-6" fill="white">
                <use xlink:href="#path-5"></use>
            </mask>
            <circle stroke="#FF9843" stroke-width="2" cx="32" cy="32" r="31"></circle>
            <rect id="right-fill" fill="#FF9843" mask="url(#mask-6)" x="0" y="0" width="64" height="64"></rect>
            <path d="M32.1964286,33.7142857 C34.75875,33.7142857 37.2546429,34.4375 39.225,35.75 C41.4428571,37.2285714 42.8539286,39.3355357 43.3060714,41.84375 C43.41,42.4185714 43.2696429,42.9869643 42.9214286,43.4032143 C42.6011552,43.7871564 42.124946,44.00637 41.625,44 L22.7678571,44 C22.2679997,44.0065021 21.7918059,43.7874922 21.4714286,43.40375 C21.1232143,42.9875 20.9828571,42.4191071 21.0867857,41.8442857 C21.5389286,39.3360714 22.95,37.2291071 25.1678571,35.75 C27.1382143,34.4369643 29.6341071,33.7142857 32.1964286,33.7142857 Z M32.1964286,20 C33.8035714,20 35.2596429,20.6198214 36.3021429,21.7453571 C37.3575,22.8848214 37.8717857,24.4185714 37.7501786,26.0632143 C37.5085714,29.3369643 35.02125,32 32.1964286,32 C29.3716071,32 26.88,29.3364286 26.6421429,26.0621429 C26.5221429,24.4025 27.0332143,22.8655357 28.0821429,21.7346429 C29.1198214,20.6160714 30.5807143,20 32.1964286,20 Z" fill="#8E460B" fill-rule="nonzero"></path>
        </g>
        <g id="teacher" transform="translate(139.000000, 282.000000)">
            <circle id="teacher-circle-beat" fill="#207FDF" cx="32" cy="32" r="32"></circle>
            <circle id="teacher-circle" fill="#207FDF" cx="32" cy="32" r="32"></circle>
            <g id="teacher-icon" transform="translate(18.000000, 20.000000)" fill="#FFFFFF" fill-rule="nonzero">
                <path d="M13.8705036,18.4172662 C13.7102041,18.4172509 13.5526852,18.3753913 13.4135252,18.2958273 L5.35251799,13.6886331 C5.20995487,13.606324 5.03429455,13.6063886 4.89179202,13.6888026 C4.7492895,13.7712165 4.66162766,13.9234399 4.66187,14.0880576 L4.66187,18.4172662 C4.66159184,18.7519748 4.84294811,19.0604788 5.13553957,19.2230216 L13.4233094,23.8273381 C13.7014222,23.9818378 14.0395849,23.9818378 14.3176978,23.8273381 L22.6054676,19.2230216 C22.8980591,19.0604788 23.0794154,18.7519748 23.0791372,18.4172662 L23.0791372,14.0880576 C23.0793795,13.9234399 22.9917177,13.7712165 22.8492152,13.6888026 C22.7067126,13.6063886 22.5310523,13.606324 22.3884892,13.6886331 L14.327482,18.2958273 C14.188322,18.3753913 14.0308031,18.4172509 13.8705036,18.4172662 Z" id="Path"></path>
                <path d="M27.6788489,8.20143885 C27.6788489,8.20143885 27.6788489,8.19683453 27.6788489,8.19510791 C27.6486366,7.89894518 27.4771141,7.63565818 27.2184173,7.48834532 L14.3263309,0.121438849 C14.0431752,-0.0404124929 13.6955299,-0.0404124929 13.4123741,0.121438849 L0.52028777,7.48834532 C0.233476863,7.65232786 0.0564909398,7.95739005 0.0564909398,8.28776978 C0.0564909398,8.61814952 0.233476863,8.92321171 0.52028777,9.08719424 L13.4123741,16.4541007 C13.6955299,16.6159521 14.0431752,16.6159521 14.3263309,16.4541007 L25.6690647,9.97294964 C25.7047501,9.95234626 25.7487268,9.9523897 25.7843713,9.97306356 C25.8200159,9.99373741 25.8418906,10.0318877 25.8417266,10.0730935 L25.8417266,18.3913669 C25.8417266,18.8869065 26.2227338,19.3122302 26.7182734,19.3369784 C26.9698856,19.3491013 27.21548,19.2576198 27.3978467,19.083844 C27.5802135,18.9100681 27.6834532,18.6691703 27.6834532,18.4172662 L27.6834532,8.28776978 C27.6834532,8.25893331 27.681848,8.23011903 27.6788489,8.20143885 Z" id="Path"></path>
            </g>
        </g>
        <path d="M278,191 L222,191 L222,178" id="progress-right" stroke="#C3CCD4" stroke-width="3" stroke-linecap="round" stroke-linejoin="round" stroke-dasharray="10" transform="translate(250.000000, 184.500000) scale(-1, 1) translate(-250.000000, -184.500000) "></path>
        <path d="M118,191 L62,191 L62,178" id="progress-left" stroke="#C3CCD4" stroke-width="3" stroke-linecap="round" stroke-linejoin="round" stroke-dasharray="10"></path>
        <line x1="170.5" y1="138" x2="170.5" y2="115" id="progress-top" stroke="#C3CCD4" stroke-width="3" stroke-linecap="round" stroke-linejoin="round" stroke-dasharray="10"></line>
        <line x1="170.5" y1="262" x2="170.5" y2="242" id="progress-bottom" stroke="#C3CCD4" stroke-width="3" stroke-linecap="round" stroke-linejoin="round" stroke-dasharray="10"></line>
        <path d="M189.6064,164 C193.137488,164 196,166.862512 196,170.3936 L196,208.6064 C196,212.137488 193.137488,215 189.6064,215 L151.3936,215 C147.862512,215 145,212.137488 145,208.6064 L145,170.3936 C145,166.862512 147.862512,164 151.3936,164 L189.6064,164 Z M173.367765,193.611777 C173.315959,193.719707 173.289063,193.837897 173.289063,193.957616 L173.289063,200.979884 C173.289063,201.42127 173.646877,201.779084 174.088263,201.779084 C174.207982,201.779084 174.326172,201.752188 174.434101,201.700381 L181.748964,198.189247 C182.146884,197.998246 182.314624,197.520831 182.123623,197.122911 C182.044972,196.959056 181.912819,196.826903 181.748964,196.748253 L174.434101,193.237119 C174.036182,193.046117 173.558767,193.213858 173.367765,193.611777 Z M161.734375,196.671875 L158.546875,196.671875 C158.106773,196.671875 157.75,197.028648 157.75,197.46875 C157.75,197.908852 158.106773,198.265625 158.546875,198.265625 L161.734375,198.265625 C162.174477,198.265625 162.53125,197.908852 162.53125,197.46875 C162.53125,197.028648 162.174477,196.671875 161.734375,196.671875 Z M169.703125,196.671875 L166.515625,196.671875 C166.075523,196.671875 165.71875,197.028648 165.71875,197.46875 C165.71875,197.908852 166.075523,198.265625 166.515625,198.265625 L169.703125,198.265625 C170.143227,198.265625 170.5,197.908852 170.5,197.46875 C170.5,197.028648 170.143227,196.671875 169.703125,196.671875 Z M165.869948,178.056143 L165.769024,178.096494 L158.454161,181.607628 C158.290306,181.686278 158.158153,181.818431 158.079502,181.982286 C157.904418,182.347046 158.030776,182.778604 158.359551,182.995117 L158.454161,183.048622 L165.769024,186.559756 C165.876953,186.611563 165.995143,186.638459 166.114862,186.638459 C166.522296,186.638459 166.85852,186.333576 166.907836,185.939509 L166.914062,185.839259 L166.913384,183.124053 L181.65625,183.125 C182.096352,183.125 182.453125,182.768227 182.453125,182.328125 C182.453125,181.921877 182.149129,181.586631 181.756208,181.537459 L181.65625,181.53125 L166.913384,181.531053 L166.914062,178.816991 C166.914062,178.697272 166.887166,178.579082 166.83536,178.471152 C166.660275,178.106392 166.244524,177.935047 165.869948,178.056143 Z" id="Combined-Shape" fill="#C3CCD4" transform="translate(170.500000, 189.500000) rotate(-45.000000) translate(-170.500000, -189.500000) "></path>
    </g>
</svg>