<?xml version="1.0" encoding="UTF-8"?>
<svg width="340px" height="376px" viewBox="0 0 340 376" version="1.1" xmlns="http://www.w3.org/2000/svg" xmlns:xlink="http://www.w3.org/1999/xlink">
    <title>teachers-diagram</title>
    <defs>
        <circle id="path-1" cx="32" cy="32" r="32"></circle>
        <circle id="path-3" cx="32" cy="32" r="32"></circle>
        <circle id="path-5" cx="32" cy="32" r="32"></circle>
    </defs>
    <g id="teachers-diagram" stroke="none" stroke-width="1" fill="none" fill-rule="evenodd">
        <g id="student-left" transform="translate(30.000000, 94.000000)">
            <mask id="mask-2" fill="white">
                <use xlink:href="#path-1"></use>
            </mask>
            <circle stroke="#FF9843" stroke-width="2" cx="32" cy="32" r="31"></circle>
            <rect id="left-fill" fill="#FF9843" mask="url(#mask-2)" x="0" y="0" width="64" height="64"></rect>
            <path d="M32.1964286,33.7142857 C34.75875,33.7142857 37.2546429,34.4375 39.225,35.75 C41.4428571,37.2285714 42.8539286,39.3355357 43.3060714,41.84375 C43.41,42.4185714 43.2696429,42.9869643 42.9214286,43.4032143 C42.6011552,43.7871564 42.124946,44.00637 41.625,44 L22.7678571,44 C22.2679997,44.0065021 21.7918059,43.7874922 21.4714286,43.40375 C21.1232143,42.9875 20.9828571,42.4191071 21.0867857,41.8442857 C21.5389286,39.3360714 22.95,37.2291071 25.1678571,35.75 C27.1382143,34.4369643 29.6341071,33.7142857 32.1964286,33.7142857 Z M32.1964286,20 C33.8035714,20 35.2596429,20.6198214 36.3021429,21.7453571 C37.3575,22.8848214 37.8717857,24.4185714 37.7501786,26.0632143 C37.5085714,29.3369643 35.02125,32 32.1964286,32 C29.3716071,32 26.88,29.3364286 26.6421429,26.0621429 C26.5221429,24.4025 27.0332143,22.8655357 28.0821429,21.7346429 C29.1198214,20.6160714 30.5807143,20 32.1964286,20 Z" fill="#8E460B" fill-rule="nonzero"></path>
        </g>
        <g id="student" transform="translate(138.000000, 30.000000)">
            <mask id="mask-4" fill="white">
                <use xlink:href="#path-3"></use>
            </mask>
            <circle stroke="#FF9843" stroke-width="2" cx="32" cy="32" r="31"></circle>
            <rect id="middle-fill" fill="#FF9843" mask="url(#mask-4)" x="0" y="0" width="64" height="64"></rect>
            <path d="M32.1964286,33.7142857 C34.75875,33.7142857 37.2546429,34.4375 39.225,35.75 C41.4428571,37.2285714 42.8539286,39.3355357 43.3060714,41.84375 C43.41,42.4185714 43.2696429,42.9869643 42.9214286,43.4032143 C42.6011552,43.7871564 42.124946,44.00637 41.625,44 L22.7678571,44 C22.2679997,44.0065021 21.7918059,43.7874922 21.4714286,43.40375 C21.1232143,42.9875 20.9828571,42.4191071 21.0867857,41.8442857 C21.5389286,39.3360714 22.95,37.2291071 25.1678571,35.75 C27.1382143,34.4369643 29.6341071,33.7142857 32.1964286,33.7142857 Z M32.1964286,20 C33.8035714,20 35.2596429,20.6198214 36.3021429,21.7453571 C37.3575,22.8848214 37.8717857,24.4185714 37.7501786,26.0632143 C37.5085714,29.3369643 35.02125,32 32.1964286,32 C29.3716071,32 26.88,29.3364286 26.6421429,26.0621429 C26.5221429,24.4025 27.0332143,22.8655357 28.0821429,21.7346429 C29.1198214,20.6160714 30.5807143,20 32.1964286,20 Z" id="student-top" fill="#8E460B" fill-rule="nonzero"></path>
        </g>
        <g id="student-right" transform="translate(246.000000, 94.000000)">
            <mask id="mask-6" fill="white">
                <use xlink:href="#path-5"></use>
            </mask>
            <circle stroke="#FF9843" stroke-width="2" cx="32" cy="32" r="31"></circle>
            <rect id="right-fill" fill="#FF9843" mask="url(#mask-6)" x="0" y="0" width="64" height="64"></rect>
            <path d="M32.1964286,33.7142857 C34.75875,33.7142857 37.2546429,34.4375 39.225,35.75 C41.4428571,37.2285714 42.8539286,39.3355357 43.3060714,41.84375 C43.41,42.4185714 43.2696429,42.9869643 42.9214286,43.4032143 C42.6011552,43.7871564 42.124946,44.00637 41.625,44 L22.7678571,44 C22.2679997,44.0065021 21.7918059,43.7874922 21.4714286,43.40375 C21.1232143,42.9875 20.9828571,42.4191071 21.0867857,41.8442857 C21.5389286,39.3360714 22.95,37.2291071 25.1678571,35.75 C27.1382143,34.4369643 29.6341071,33.7142857 32.1964286,33.7142857 Z M32.1964286,20 C33.8035714,20 35.2596429,20.6198214 36.3021429,21.7453571 C37.3575,22.8848214 37.8717857,24.4185714 37.7501786,26.0632143 C37.5085714,29.3369643 35.02125,32 32.1964286,32 C29.3716071,32 26.88,29.3364286 26.6421429,26.0621429 C26.5221429,24.4025 27.0332143,22.8655357 28.0821429,21.7346429 C29.1198214,20.6160714 30.5807143,20 32.1964286,20 Z" fill="#8E460B" fill-rule="nonzero"></path>
        </g>
        <g id="teacher" transform="translate(139.000000, 282.000000)">
            <circle id="teacher-circle-beat" fill="#207FDF" cx="32" cy="32" r="32"></circle>
            <circle id="teacher-circle" fill="#207FDF" cx="32" cy="32" r="32"></circle>
            <g id="teacher-icon" transform="translate(18.000000, 20.000000)" fill="#FFFFFF" fill-rule="nonzero">
                <path d="M13.8705036,18.4172662 C13.7102041,18.4172509 13.5526852,18.3753913 13.4135252,18.2958273 L5.35251799,13.6886331 C5.20995487,13.606324 5.03429455,13.6063886 4.89179202,13.6888026 C4.7492895,13.7712165 4.66162766,13.9234399 4.66187,14.0880576 L4.66187,18.4172662 C4.66159184,18.7519748 4.84294811,19.0604788 5.13553957,19.2230216 L13.4233094,23.8273381 C13.7014222,23.9818378 14.0395849,23.9818378 14.3176978,23.8273381 L22.6054676,19.2230216 C22.8980591,19.0604788 23.0794154,18.7519748 23.0791372,18.4172662 L23.0791372,14.0880576 C23.0793795,13.9234399 22.9917177,13.7712165 22.8492152,13.6888026 C22.7067126,13.6063886 22.5310523,13.606324 22.3884892,13.6886331 L14.327482,18.2958273 C14.188322,18.3753913 14.0308031,18.4172509 13.8705036,18.4172662 Z" id="Path"></path>
                <path d="M27.6788489,8.20143885 C27.6788489,8.20143885 27.6788489,8.19683453 27.6788489,8.19510791 C27.6486366,7.89894518 27.4771141,7.63565818 27.2184173,7.48834532 L14.3263309,0.121438849 C14.0431752,-0.0404124929 13.6955299,-0.0404124929 13.4123741,0.121438849 L0.52028777,7.48834532 C0.233476863,7.65232786 0.0564909398,7.95739005 0.0564909398,8.28776978 C0.0564909398,8.61814952 0.233476863,8.92321171 0.52028777,9.08719424 L13.4123741,16.4541007 C13.6955299,16.6159521 14.0431752,16.6159521 14.3263309,16.4541007 L25.6690647,9.97294964 C25.7047501,9.95234626 25.7487268,9.9523897 25.7843713,9.97306356 C25.8200159,9.99373741 25.8418906,10.0318877 25.8417266,10.0730935 L25.8417266,18.3913669 C25.8417266,18.8869065 26.2227338,19.3122302 26.7182734,19.3369784 C26.9698856,19.3491013 27.21548,19.2576198 27.3978467,19.083844 C27.5802135,18.9100681 27.6834532,18.6691703 27.6834532,18.4172662 L27.6834532,8.28776978 C27.6834532,8.25893331 27.681848,8.23011903 27.6788489,8.20143885 Z" id="Path"></path>
            </g>
        </g>
        <g id="msw-logo" transform="translate(138.000000, 158.000000)">
            <g id="Group" transform="translate(32.089391, 32.001560) rotate(-45.000000) translate(-32.089391, -32.001560) translate(9.589391, 9.501560)">
                <g id="Rectangle" transform="translate(0.001113, -0.001094)">
                    <path d="M43.4022989,0.735632184 L1.47126437,0.735632184 C1.26812515,0.735632184 1.0842171,0.817970623 0.951093863,0.951093863 C0.817970623,1.0842171 0.735632184,1.26812515 0.735632184,1.47126437 L0.735632184,43.4022989 C0.735632184,43.6054382 0.817970623,43.7893462 0.951093863,43.9224695 C1.0842171,44.0555925 1.26812515,44.137931 1.47126437,44.137931 L43.4022989,44.137931 C43.6054382,44.137931 43.7893462,44.0555925 43.9224695,43.9224695 C44.0555925,43.7893462 44.137931,43.6054382 44.137931,43.4022989 L44.137931,1.47126437 C44.137931,1.26812515 44.0555925,1.0842171 43.9224695,0.951093863 C43.7893462,0.817970623 43.6054382,0.735632184 43.4022989,0.735632184 Z" id="Path" stroke="#FFFFFF" stroke-width="2.94252874" fill="#C3CCD4"></path>
                    <path d="M43.4022989,0 L1.47126437,0 C1.06498593,0 0.697169839,0.164676874 0.430923358,0.430923358 C0.164676874,0.697169839 0,1.06498593 0,1.47126437 L0,43.4022989 C0,43.8085771 0.164676874,44.1763932 0.430923358,44.4426398 C0.697169839,44.7088864 1.06498593,44.8735632 1.47126437,44.8735632 L43.4022989,44.8735632 C43.8085771,44.8735632 44.1763932,44.7088864 44.4426398,44.4426398 C44.7088864,44.1763932 44.8735632,43.8085771 44.8735632,43.4022989 L44.8735632,1.47126437 C44.8735632,1.06498593 44.7088864,0.697169839 44.4426398,0.430923358 C44.1763932,0.164676874 43.8085771,0 43.4022989,0 Z" id="Path" stroke="#C3CCD4" stroke-width="1.47126437"></path>
                </g>
                <path d="M26.0296039,25.3782167 C26.1113521,25.3782167 26.1919776,25.3972498 26.2650954,25.4338087 L26.2650954,25.4338087 L34.0394159,29.3209689 C34.2995327,29.4510273 34.4049659,29.7673268 34.2749075,30.0274437 C34.2239541,30.1293504 34.1413226,30.2119819 34.0394159,30.2629353 L34.0394159,30.2629353 L26.2650954,34.1500955 C26.0049786,34.2801539 25.6886791,34.1747207 25.5586207,33.9146039 C25.5220618,33.8414861 25.5030286,33.7608605 25.5030286,33.6791123 L25.5030286,33.6791123 L25.502906,30.5276419 L23.1735267,30.5276419 C22.7672483,30.5276419 22.4378946,30.1982882 22.4378946,29.7920098 C22.4378946,29.4041985 22.7379875,29.0864778 23.1186257,29.0583953 L23.1735267,29.0563776 L25.502906,29.0563776 L25.5030286,25.9047919 C25.5030286,25.6310794 25.7118642,25.4061432 25.9788911,25.3806272 L26.0296039,25.3782167 Z M14.3459405,29.0563776 C14.752219,29.0563776 15.0815727,29.3857313 15.0815727,29.7920098 C15.0815727,30.179821 14.7814797,30.4975418 14.4008416,30.5256242 L14.3459405,30.5276419 L11.4034118,30.5276419 C10.9971334,30.5276419 10.6677796,30.1982882 10.6677796,29.7920098 C10.6677796,29.4041985 10.9678726,29.0864778 11.3485107,29.0583953 L11.4034118,29.0563776 L14.3459405,29.0563776 Z M20.230998,29.0563776 C20.6372764,29.0563776 20.9666302,29.3857313 20.9666302,29.7920098 C20.9666302,30.179821 20.6665372,30.4975418 20.2858991,30.5256242 L20.230998,30.5276419 L17.2884693,30.5276419 C16.8821908,30.5276419 16.5528371,30.1982882 16.5528371,29.7920098 C16.5528371,29.4041985 16.8529301,29.0864778 17.2335682,29.0583953 L17.2884693,29.0563776 L20.230998,29.0563776 Z" id="Line" fill="#FFFFFF" fill-rule="nonzero"></path>
                <path d="M18.9785098,13.6638091 C19.2386266,13.5337507 19.5549261,13.6391839 19.6849845,13.8993007 C19.7215434,13.9724185 19.7405766,14.0530441 19.7405766,14.1347923 L19.7405766,14.1347923 L19.7403313,17.2862626 L33.8401934,17.2862626 C34.2464718,17.2862626 34.5758256,17.6156164 34.5758256,18.0218948 C34.5758256,18.4097061 34.2757326,18.7274268 33.8950945,18.7555093 L33.8401934,18.757527 L19.7403313,18.757527 L19.7405766,21.9091127 C19.7405766,22.1828251 19.531741,22.4077614 19.264714,22.4332774 L19.2140013,22.4356879 C19.1322531,22.4356879 19.0516276,22.4166548 18.9785098,22.3800959 L18.9785098,22.3800959 L11.2041893,18.4929357 C10.9440725,18.3628773 10.8386393,18.0465777 10.9686977,17.7864609 C11.0196511,17.6845542 11.1022826,17.6019227 11.2041893,17.5509693 L11.2041893,17.5509693 L18.9785098,13.6638091 Z" id="Line-Copy" fill="#FFFFFF" fill-rule="nonzero"></path>
            </g>
        </g>
        <path d="M278,191 L222,191 L222,178" id="progress-right" stroke="#C3CCD4" stroke-width="3" stroke-linecap="round" stroke-linejoin="round" stroke-dasharray="10" transform="translate(250.000000, 184.500000) scale(-1, 1) translate(-250.000000, -184.500000) "></path>
        <path d="M118,191 L62,191 L62,178" id="progress-left" stroke="#C3CCD4" stroke-width="3" stroke-linecap="round" stroke-linejoin="round" stroke-dasharray="10"></path>
        <line x1="170.5" y1="138" x2="170.5" y2="115" id="progress-top" stroke="#C3CCD4" stroke-width="3" stroke-linecap="round" stroke-linejoin="round" stroke-dasharray="10"></line>
        <line x1="170.5" y1="262" x2="170.5" y2="242" id="progress-bottom" stroke="#C3CCD4" stroke-width="3" stroke-linecap="round" stroke-linejoin="round" stroke-dasharray="10"></line>
    </g>
</svg>